<svg xmlns="http://www.w3.org/2000/svg" viewBox="0 0 293.84 363.89"><defs><style>.cls-1{isolation:isolate;font-size:24px;font-family:ArialMT, Arial;}.cls-2{opacity:0.4;}.cls-3{fill:#41ab5d;}.cls-4{fill:#807dba;}.cls-5{fill:#fb6a4a;}.cls-6,.cls-7,.cls-8{fill:none;stroke-linecap:round;stroke-linejoin:round;}.cls-6{stroke:#2aa640;}.cls-7{stroke:#8057d0;}.cls-8{stroke:#ff5337;}</style></defs><title>Asset 1</title><g id="Layer_2" data-name="Layer 2"><g id="Layer_1-2" data-name="Layer 1"><text class="cls-1" transform="translate(116.79 20.6)">Iris Petals</text><g class="cls-2"><path class="cls-3" d="M169.43,217l.15-75.1,1.42,0L169.43,217Z"/><path class="cls-3" d="M169.43,217l3.3-75,1.41.08L169.43,217Z"/><path class="cls-3" d="M169.43,217l6.18-71.85,1.35.13L169.43,217Z"/><path class="cls-3" d="M169.43,217l9.93-77.34,1.46.2L169.43,217Z"/><path class="cls-3" d="M169.43,217l12.68-74,1.39.25L169.43,217Z"/><path class="cls-3" d="M169.43,217l17.51-81.56,1.54.34-19,81.22Z"/><path class="cls-3" d="M169.43,217l18.83-72.7,1.36.37L169.43,217Z"/><path class="cls-3" d="M169.43,217l22.69-74.6,1.4.44L169.43,217Z"/><path class="cls-3" d="M169.43,217l24.84-70.87c.45.15.89.32,1.34.48L169.43,217Z"/><path class="cls-3" d="M169.43,217l28.85-72.44,1.36.56L169.43,217Z"/><path class="cls-3" d="M169.43,217l31.86-71.16,1.34.61L169.43,217Z"/><path class="cls-3" d="M169.43,217l36-72.25,1.36.7L169.43,217Z"/><path class="cls-3" d="M169.43,217l36.32-65.74,1.23.7-37.55,65Z"/><path class="cls-3" d="M169.43,217l34.17-56.16,1.05.66L169.43,217Z"/><path class="cls-3" d="M169.43,217l38.3-57.39,1.08.73L169.43,217Z"/><path class="cls-3" d="M169.43,217l46-63c.4.28.79.58,1.18.87L169.43,217Z"/><path class="cls-3" d="M169.43,217l44.91-56.42,1.06.86-46,55.56Z"/><path class="cls-3" d="M169.43,217l49.19-56.75,1.06.94L169.43,217Z"/><path class="cls-3" d="M169.43,217l57.23-60.69,1.14,1.09L169.43,217Z"/><path class="cls-3" d="M169.43,217l55.82-54.44,1,1.06L169.43,217Z"/><path class="cls-3" d="M169.43,217l62.11-55.69,1,1.18L169.43,217Z"/><path class="cls-3" d="M169.43,217l60.18-49.57.93,1.14L169.43,217Z"/><path class="cls-3" d="M169.43,217l49.7-37.56c.24.31.47.62.7.94L169.43,217Z"/><path class="cls-3" d="M169.43,217,238,169.57c.3.43.59.86.88,1.3L169.43,217Z"/><path class="cls-3" d="M169.43,217l74.85-47.28c.3.47.59.94.88,1.42L169.43,217Z"/><path class="cls-3" d="M169.43,217l70-40.22c.25.44.5.88.74,1.32L169.43,217Z"/><path class="cls-3" d="M169.43,217l71.63-37.26c.24.45.47.91.69,1.36L169.43,217Z"/><path class="cls-3" d="M169.43,217,240.05,184c.21.44.41.89.61,1.34L169.43,217Z"/><path class="cls-3" d="M169.43,217l69.29-29,.54,1.32L169.43,217Z"/><path class="cls-3" d="M169.43,217l75.74-28,.51,1.43L169.43,217Z"/><path class="cls-3" d="M169.43,217l76.84-24.79c.16.48.31,1,.46,1.45L169.43,217Z"/><path class="cls-3" d="M169.43,217l75.14-20.81c.13.47.26.95.38,1.42L169.43,217Z"/><path class="cls-3" d="M169.43,217l75.95-17.64c.11.47.22,1,.32,1.43L169.43,217Z"/><path class="cls-3" d="M169.43,217l73.8-13.92c.09.47.17.93.25,1.4l-74,12.52Z"/><path class="cls-3" d="M169.43,217l77.16-11.23c.07.49.14,1,.2,1.46L169.43,217Z"/><path class="cls-3" d="M169.43,217,238.07,210l.12,1.3L169.43,217Z"/><path class="cls-3" d="M169.43,217l72-4.37c0,.45.05.9.07,1.35l-72,3Z"/><path class="cls-3" d="M169.43,217l78-1.47c0,.49,0,1,0,1.47Z"/><path class="cls-3" d="M169.43,217l72.09,1.66c0,.46,0,.91,0,1.36l-72-3Z"/><path class="cls-3" d="M169.43,217l77.81,5.06c0,.49-.07,1-.11,1.47L169.43,217Z"/><path class="cls-3" d="M169.43,217l71.7,7.69-.15,1.35-71.55-9Z"/><path class="cls-3" d="M169.43,217l71.32,10.69c-.07.45-.14.89-.22,1.34l-71.1-12Z"/><path class="cls-3" d="M169.43,217l70.81,13.66L240,232l-70.54-15Z"/><path class="cls-3" d="M169.43,217,248,235.64l-.36,1.47L169.43,217Z"/><path class="cls-3" d="M169.43,217l85.22,24c-.15.54-.3,1.07-.46,1.6L169.43,217Z"/><path class="cls-3" d="M169.43,217l71.38,23.36c-.15.45-.3.9-.46,1.34L169.43,217Z"/><path class="cls-3" d="M169.43,217l75.62,28.31c-.18.47-.36.95-.55,1.42L169.43,217Z"/><path class="cls-3" d="M169.43,217l69.17,29.25c-.18.44-.37.87-.56,1.3L169.43,217Z"/><path class="cls-3" d="M169.43,217l70.48,33.35c-.21.44-.42.88-.64,1.32L169.43,217Z"/><path class="cls-3" d="M169.43,217,235.91,252c-.22.42-.44.83-.67,1.24L169.43,217Z"/><path class="cls-4" d="M169.43,217l122.78,71.23c-.45.78-.9,1.54-1.37,2.31L169.43,217Z"/><path class="cls-4" d="M169.43,217l117.05,74.63c-.47.74-1,1.47-1.43,2.19L169.43,217Z"/><path class="cls-4" d="M169.43,217l118.9,83c-.52.75-1.05,1.49-1.59,2.23L169.43,217Z"/><path class="cls-4" d="M169.43,217l103.9,79.22c-.49.65-1,1.3-1.51,1.94L169.43,217Z"/><path class="cls-4" d="M169.43,217l108,89.72c-.56.68-1.13,1.35-1.71,2L169.43,217Z"/><path class="cls-4" d="M169.43,217l103,93.11q-.87,1-1.77,1.92L169.43,217Z"/><path class="cls-4" d="M169.43,217l101.21,99.53c-.63.64-1.26,1.27-1.9,1.89L169.43,217Z"/><path class="cls-4" d="M169.43,217l80.8,86.41c-.55.5-1.09,1-1.65,1.5L169.43,217Z"/><path class="cls-4" d="M169.43,217,260.94,323.5c-.67.58-1.34,1.14-2,1.71L169.43,217Z"/><path class="cls-4" d="M169.43,217l79.89,101.24c-.63.5-1.28,1-1.92,1.49L169.43,217Z"/><path class="cls-4" d="M169.43,217l71.47,98.82L239,317.18,169.43,217Z"/><path class="cls-4" d="M169.43,217l73.91,111.75c-.71.47-1.41.93-2.12,1.38L169.43,217Z"/><path class="cls-4" d="M169.43,217l67.45,111.91-2.12,1.25L169.43,217Z"/><path class="cls-4" d="M169.43,217l68.12,124.54c-.78.42-1.57.85-2.36,1.26L169.43,217Z"/><path class="cls-4" d="M169.43,217l54.79,111-2.1,1L169.43,217Z"/><path class="cls-4" d="M169.43,217,225,342.51l-2.38,1L169.43,217Z"/><path class="cls-4" d="M169.43,217l50.83,129.18c-.81.32-1.63.63-2.45.93L169.43,217Z"/><path class="cls-4" d="M169.43,217l43.25,125.06c-.78.28-1.57.54-2.36.8L169.43,217Z"/><path class="cls-4" d="M169.43,217l39.84,133-2.51.73L169.43,217Z"/><path class="cls-4" d="M169.43,217l31.81,125c-.79.2-1.58.4-2.36.58L169.43,217Z"/><path class="cls-4" d="M169.43,217,199,357.45l-2.66.53L169.43,217Z"/><path class="cls-4" d="M169.43,217,191,345.91l-2.44.38L169.43,217Z"/><path class="cls-4" d="M169.43,217,187.3,360.94c-.9.11-1.81.22-2.72.31L169.43,217Z"/><path class="cls-4" d="M169.43,217,181,358.51c-.89.07-1.78.14-2.67.19L169.43,217Z"/><path class="cls-4" d="M169.43,217l5.39,135.51-2.55.08L169.43,217Z"/><path class="cls-4" d="M169.43,217l-.29,137.23c-.86,0-1.73,0-2.59,0L169.43,217Z"/><path class="cls-4" d="M169.43,217l-6.31,143.35c-.9,0-1.8-.08-2.7-.14l9-143.21Z"/><path class="cls-4" d="M169.43,217,156.86,363c-.92-.07-1.83-.16-2.75-.26L169.43,217Z"/><path class="cls-4" d="M169.43,217,151.74,354.72c-.87-.11-1.73-.23-2.59-.36L169.43,217Z"/><path class="cls-4" d="M169.43,217,148.84,337.24l-2.27-.41L169.43,217Z"/><path class="cls-4" d="M169.43,217,142.71,341.45l-2.34-.53L169.43,217Z"/><path class="cls-4" d="M169.43,217,138,338.53c-.76-.19-1.53-.4-2.29-.61L169.43,217Z"/><path class="cls-4" d="M169.43,217,131.89,340.42l-2.32-.73L169.43,217Z"/><path class="cls-4" d="M169.43,217l-49,139.68c-.88-.31-1.76-.62-2.63-.95L169.43,217Z"/><path class="cls-4" d="M169.43,217,118.05,346c-.81-.32-1.61-.65-2.42-1l53.8-128Z"/><path class="cls-4" d="M169.43,217,112.7,343.73l-2.38-1.09L169.43,217Z"/><path class="cls-4" d="M169.43,217,106,344.05l-2.38-1.22L169.43,217Z"/><path class="cls-4" d="M169.43,217,103.07,337.14c-.76-.41-1.51-.84-2.26-1.27L169.43,217Z"/><path class="cls-4" d="M169.43,217l-68.79,113c-.71-.43-1.42-.87-2.12-1.32L169.43,217Z"/><path class="cls-4" d="M169.43,217,96.89,325.71c-.68-.46-1.36-.92-2-1.39L169.43,217Z"/><path class="cls-4" d="M169.43,217,88.54,327.88l-2.08-1.54,83-109.31Z"/><path class="cls-4" d="M169.43,217,82,326.87l-2-1.66L169.43,217Z"/><path class="cls-4" d="M169.43,217,83.84,315.76,82,314.13,169.43,217Z"/><path class="cls-4" d="M169.43,217,88.27,303.1l-1.61-1.55L169.43,217Z"/><path class="cls-4" d="M169.43,217,73.5,310.57c-.58-.6-1.17-1.21-1.74-1.82L169.43,217Z"/><path class="cls-4" d="M169.43,217,69.67,306.48c-.56-.63-1.12-1.26-1.67-1.9L169.43,217Z"/><path class="cls-4" d="M169.43,217,66,302.22c-.53-.65-1.06-1.3-1.58-2l105-83.23Z"/><path class="cls-4" d="M169.43,217,61.24,298.8c-.52-.68-1-1.37-1.53-2.06L169.43,217Z"/><path class="cls-4" d="M169.43,217,76.84,281.09c-.4-.58-.8-1.16-1.19-1.75L169.43,217Z"/><path class="cls-4" d="M169.43,217,57.55,287.71c-.45-.71-.88-1.41-1.31-2.13L169.43,217Z"/><path class="cls-5" d="M169.43,217,30,297.15c-.5-.87-1-1.75-1.49-2.64L169.43,217Z"/><path class="cls-5" d="M169.43,217,38.11,285.33c-.43-.82-.85-1.65-1.26-2.48L169.43,217Z"/><path class="cls-5" d="M169.43,217,25,284.62c-.43-.9-.84-1.82-1.25-2.73L169.43,217Z"/><path class="cls-5" d="M169.43,217,26.17,276.9c-.38-.9-.74-1.8-1.1-2.71L169.43,217Z"/><path class="cls-5" d="M169.43,217,21.16,271.82c-.35-.93-.68-1.87-1-2.8l149.28-52Z"/><path class="cls-5" d="M169.43,217,8.75,268.87c-.32-1-.64-2-1-3L169.43,217Z"/><path class="cls-5" d="M169.43,217,35.65,254.08c-.24-.84-.46-1.68-.68-2.52L169.43,217Z"/><path class="cls-5" d="M169.43,217,8.83,254.35c-.24-1-.46-2-.68-3L169.43,217Z"/><path class="cls-5" d="M169.43,217,14.1,246.33c-.19-1-.36-2-.53-2.94L169.43,217Z"/><path class="cls-5" d="M169.43,217,8.93,240.39c-.15-1-.28-2-.41-3L169.43,217Z"/><path class="cls-5" d="M169.43,217,22.19,232.2c-.09-.93-.18-1.85-.26-2.78L169.43,217Z"/><path class="cls-5" d="M169.43,217,18.75,226.2q-.09-1.42-.15-2.85L169.43,217Z"/><path class="cls-5" d="M169.43,217l-153.82,2.9c0-1,0-1.93,0-2.9Z"/><path class="cls-5" d="M169.43,217,22.94,213.66,23,210.9,169.43,217Z"/><path class="cls-5" d="M169.43,217l-147.71-9.6c.06-.93.13-1.86.21-2.78L169.43,217Z"/><path class="cls-5" d="M169.43,217,19.33,200.94c.1-.94.21-1.89.33-2.83L169.43,217Z"/><path class="cls-5" d="M169.43,217,17.28,194.24c.15-1,.3-1.91.46-2.86L169.43,217Z"/><path class="cls-5" d="M169.43,217,2.38,184.8c.2-1,.42-2.09.64-3.14L169.43,217Z"/><path class="cls-5" d="M169.43,217l-168-39.78c.25-1.06.51-2.11.78-3.16L169.43,217Z"/><path class="cls-5" d="M169.43,217l-141-39.7c.24-.88.5-1.77.77-2.65L169.43,217Z"/><path class="cls-5" d="M169.43,217,20.52,168.31c.31-.94.63-1.87.95-2.8l148,51.52Z"/><path class="cls-5" d="M169.43,217,33.61,166.2q.48-1.27,1-2.55L169.43,217Z"/><path class="cls-5" d="M169.43,217,12.73,150.78c.42-1,.84-2,1.28-2.94L169.43,217Z"/><path class="cls-5" d="M169.43,217,38.34,155q.58-1.23,1.2-2.46L169.43,217Z"/><path class="cls-5" d="M169.43,217,30.74,144.16c.45-.87.92-1.74,1.39-2.6L169.43,217Z"/><path class="cls-5" d="M169.43,217,30.32,136.33c.5-.88,1-1.75,1.54-2.61L169.43,217Z"/><path class="cls-5" d="M169.43,217l-121-77.14c.48-.76,1-1.51,1.47-2.26L169.43,217Z"/><path class="cls-5" d="M169.43,217,50.52,134c.52-.74,1-1.49,1.59-2.22L169.43,217Z"/><path class="cls-5" d="M169.43,217,46,122.9q.88-1.16,1.8-2.31L169.43,217Z"/><path class="cls-5" d="M169.43,217,47.84,116c.64-.76,1.28-1.52,1.93-2.27L169.43,217Z"/><path class="cls-5" d="M169.43,217,49.13,108.26q1-1.14,2.07-2.25L169.43,217Z"/><path class="cls-5" d="M169.43,217,50.92,100.5c.73-.75,1.47-1.48,2.22-2.22L169.43,217Z"/><path class="cls-5" d="M169.43,217l-106-113.4q1.07-1,2.16-2L169.43,217Z"/><path class="cls-5" d="M169.43,217,73,104.78c.7-.6,1.41-1.2,2.13-1.79l94.35,114Z"/><path class="cls-5" d="M169.43,217,73.24,95.15l2.31-1.79L169.43,217Z"/><path class="cls-5" d="M169.43,217,74.37,85.62q1.25-.9,2.49-1.77L169.43,217Z"/><path class="cls-5" d="M169.43,217,83.78,87.53c.81-.54,1.63-1.07,2.45-1.59L169.43,217Z"/><path class="cls-5" d="M169.43,217,90,85.28l2.5-1.48L169.43,217Z"/><path class="cls-5" d="M169.43,217,100.56,91.15,103,89.87,169.43,217Z"/><path class="cls-5" d="M169.43,217,102,80.38l2.59-1.25L169.43,217Z"/><path class="cls-5" d="M169.43,217l-62.86-142,2.69-1.16L169.43,217Z"/><path class="cls-5" d="M169.43,217,115.23,79.3l2.6-1L169.43,217Z"/><path class="cls-5" d="M169.43,217,121,77.15l2.65-.89L169.43,217Z"/><path class="cls-5" d="M169.43,217,123.66,64.29c1-.29,1.92-.57,2.89-.84L169.43,217Z"/><path class="cls-5" d="M169.43,217,130.78,65.2l2.87-.7L169.43,217Z"/><path class="cls-5" d="M169.43,217,138.65,70.74c.92-.19,1.84-.38,2.76-.55l28,146.84Z"/><path class="cls-5" d="M169.43,217,145.29,72.51l2.73-.43,21.41,145Z"/><path class="cls-5" d="M169.43,217,151,68.68l2.8-.32L169.43,217Z"/><path class="cls-5" d="M169.43,217,157,65.14c1-.08,1.91-.15,2.87-.21L169.43,217Z"/><path class="cls-5" d="M169.43,217,163.54,69.14q1.4-.06,2.79-.09l3.1,148Z"/></g><path class="cls-6" d="M169.76,141.93h1"/><path class="cls-6" d="M172.93,142l1,0"/><path class="cls-6" d="M175.77,145.14l1,.09"/><path class="cls-6" d="M179.52,139.69l1,.14"/><path class="cls-6" d="M182.29,143l1,.17"/><path class="cls-6" d="M186.65,135.47l2,.44"/><path class="cls-6" d="M188.2,144.33l1.51.39"/><path class="cls-6" d="M192.36,142.43l1,.31"/><path class="cls-6" d="M194.49,146.22l1,.35"/><path class="cls-6" d="M198.73,144.78l.48.2"/><path class="cls-6" d="M201.53,146l.95.42"/><path class="cls-6" d="M205.65,144.88l.93.46"/><path class="cls-6" d="M206.15,151.53l.46.26"/><path class="cls-6" d="M204,161.07l.44.27"/><path class="cls-6" d="M207.87,159.75l.86.58"/><path class="cls-6" d="M214.9,153.9l1.68,1.23"/><path class="cls-6" d="M214.11,160.33l1.63,1.3"/><path class="cls-6" d="M218.5,160.36l1.18,1"/><path class="cls-6" d="M226.66,156.38l1.14,1.07"/><path class="cls-6" d="M225.18,162.54l1.09,1.11"/><path class="cls-6" d="M231.72,161.45l.69.77"/><path class="cls-6" d="M229.44,167.25l1.32,1.61"/><path class="cls-6" d="M219.21,179.47c.21.27.41.55.62.83"/><path class="cls-6" d="M237.73,169c.5.7,1,1.42,1.48,2.13"/><path class="cls-6" d="M244.49,169.92l.56.88"/><path class="cls-6" d="M239.56,177c.18.3.35.6.52.9"/><path class="cls-6" d="M240.88,179.52c.33.61.64,1.22,1,1.84"/><path class="cls-6" d="M240.18,184.21l.45.94"/><path class="cls-6" d="M238.71,188.23c.14.32.27.64.4,1"/><path class="cls-6" d="M245.21,189.19l.36,1"/><path class="cls-6" d="M246.34,192.48c.11.33.21.66.32,1"/><path class="cls-6" d="M244.5,195.92c.18.67.37,1.34.55,2"/><path class="cls-6" d="M245.47,199.85l.12.5"/><path class="cls-6" d="M243.29,203.28c.06.34.13.68.19,1"/><path class="cls-6" d="M246.69,206.28c0,.17.05.34.07.51"/><path class="cls-6" d="M238.13,210.07c0,.35.08.69.11,1"/><path class="cls-6" d="M241.42,212.84l.06,1"/><path class="cls-6" d="M247.4,216c0,.17,0,.34,0,.52"/><path class="cls-6" d="M241.54,218.86l0,1"/><path class="cls-6" d="M247.27,222.33c0,.35,0,.69-.07,1"/><path class="cls-6" d="M241.13,224.61c0,.51-.11,1-.16,1.55"/><path class="cls-6" d="M240.68,227.52c-.08.51-.15,1-.23,1.54"/><path class="cls-6" d="M240.34,230.87c-.07.34-.13.69-.2,1"/><path class="cls-6" d="M248.17,234.76q-.34,1.52-.72,3"/><path class="cls-6" d="M254.65,240.82c-.18.67-.37,1.34-.56,2"/><path class="cls-6" d="M240.81,240.25l-.49,1.48"/><path class="cls-6" d="M245,245.62l-.36,1"/><path class="cls-6" d="M238.47,246.49l-.41.95"/><path class="cls-6" d="M239.77,250.57l-.44,1"/><path class="cls-6" d="M235.91,252.12l-.48.92"/><path class="cls-7" d="M293.34,286.17q-1.75,3.19-3.66,6.3"/><path class="cls-7" d="M287.83,289.32q-2,3.35-4.19,6.58"/><path class="cls-7" d="M289.68,298.17q-2.15,3.25-4.46,6.39"/><path class="cls-7" d="M274.6,294.53c-1.33,1.83-2.69,3.62-4.1,5.38"/><path class="cls-7" d="M279.07,304.65q-2.42,3.06-5,6"/><path class="cls-7" d="M273.67,308.77q-2.22,2.55-4.53,5"/><path class="cls-7" d="M272.39,314.59c-1.89,2-3.83,4-5.83,5.93"/><path class="cls-7" d="M251.22,302.73c-1.25,1.21-2.51,2.39-3.8,3.55"/><path class="cls-7" d="M262.27,322q-2.52,2.26-5.13,4.41"/><path class="cls-7" d="M251.2,316.77q-2.8,2.33-5.71,4.51"/><path class="cls-7" d="M242,315.25c-1.39,1-2.79,2.05-4.21,3.05"/><path class="cls-7" d="M245.49,327.34q-3.21,2.24-6.51,4.3"/><path class="cls-7" d="M238.15,328.15q-2.21,1.38-4.46,2.69"/><path class="cls-7" d="M239.61,340.69c-2.1,1.21-4.23,2.38-6.39,3.49"/><path class="cls-7" d="M226.62,327.16c-2,1-4,2-6.06,3"/><path class="cls-7" d="M226.91,341.71q-3.28,1.56-6.65,3"/><path class="cls-7" d="M222.86,345c-2.4,1-4.82,2-7.26,2.86"/><path class="cls-7" d="M214,341.58c-1.63.6-3.27,1.16-4.91,1.7"/><path class="cls-7" d="M211.85,349.16c-2.47.81-5,1.55-7.47,2.24"/><path class="cls-7" d="M202.75,341.42q-2.76.75-5.55,1.41"/><path class="cls-7" d="M202.15,356.74c-3,.73-6.09,1.38-9.16,1.93"/><path class="cls-7" d="M192.92,345.52c-2.21.42-4.44.79-6.67,1.12"/><path class="cls-7" d="M189.72,360.77q-3.85.59-7.74,1"/><path class="cls-7" d="M182.7,358.45q-3.1.32-6.22.51"/><path class="cls-7" d="M176.91,352.48q-3.37.21-6.75.27"/><path class="cls-7" d="M171.61,354.16c-2.43,0-4.85,0-7.28,0"/><path class="cls-7" d="M165.4,360.54c-2.42-.05-4.85-.15-7.27-.32"/><path class="cls-7" d="M160,363.39c-2.94-.17-5.88-.42-8.8-.75"/><path class="cls-7" d="M154.31,354.75q-3.88-.39-7.74-1"/><path class="cls-7" d="M150,337.58q-2.58-.39-5.13-.87"/><path class="cls-7" d="M144.21,341.93q-2.81-.56-5.59-1.2"/><path class="cls-7" d="M139.49,339.19c-1.68-.41-3.36-.84-5-1.31"/><path class="cls-7" d="M133.71,340.94c-2-.56-4-1.17-6-1.81"/><path class="cls-7" d="M122.89,357.45c-2.64-.85-5.25-1.77-7.85-2.75"/><path class="cls-7" d="M120.46,346.93q-3.66-1.35-7.24-2.88"/><path class="cls-7" d="M115.26,344.73q-3.84-1.61-7.59-3.4"/><path class="cls-7" d="M108.45,345.17q-3.54-1.65-7-3.48"/><path class="cls-7" d="M104.82,338q-3-1.58-5.92-3.27"/><path class="cls-7" d="M102.48,331.23q-2.92-1.69-5.77-3.52"/><path class="cls-7" d="M98.52,326.87c-1.9-1.21-3.78-2.46-5.62-3.75"/><path class="cls-7" d="M90,329c-1.71-1.2-3.39-2.42-5-3.68"/><path class="cls-7" d="M83.71,328.2q-2.89-2.2-5.7-4.54"/><path class="cls-7" d="M85.27,317q-2.4-2-4.72-4.09"/><path class="cls-7" d="M89.33,304q-1.92-1.74-3.78-3.56"/><path class="cls-7" d="M75.09,312.13c-1.6-1.58-3.18-3.19-4.72-4.84"/><path class="cls-7" d="M70.9,307.81q-2.12-2.28-4.16-4.64"/><path class="cls-7" d="M67.44,304q-2.2-2.56-4.29-5.22"/><path class="cls-7" d="M62.62,300.57q-2.1-2.65-4.08-5.4"/><path class="cls-7" d="M77.76,282.6q-1.67-2.33-3.25-4.71"/><path class="cls-7" d="M58.91,289.49c-1.24-1.88-2.45-3.79-3.61-5.72"/><path class="cls-8" d="M32.77,301.44q-3.48-5.51-6.48-11.27"/><path class="cls-8" d="M39.84,288.34q-2.42-4.3-4.55-8.76"/><path class="cls-8" d="M26.69,287.81c-1.65-3.24-3.2-6.54-4.62-9.88"/><path class="cls-8" d="M27.35,279.58c-1.28-2.84-2.49-5.72-3.6-8.64"/><path class="cls-8" d="M22.68,275.57q-2.17-5.29-4-10.73"/><path class="cls-8" d="M10.19,272.39Q8.35,267.25,6.84,262"/><path class="cls-8" d="M36.85,256.79c-.87-2.81-1.65-5.65-2.36-8.51"/><path class="cls-8" d="M9.58,257.09q-1.2-4.51-2.12-9.11"/><path class="cls-8" d="M14.47,249.59q-1-4.58-1.74-9.2"/><path class="cls-8" d="M9.77,245.09q-1.2-6.39-1.87-12.86"/><path class="cls-8" d="M22.87,236.05q-.71-5.16-1.07-10.35"/><path class="cls-8" d="M19,229.54q-.45-4.9-.6-9.86"/><path class="cls-8" d="M15.7,223.94c-.2-3.63-.26-7.28-.21-10.92"/><path class="cls-8" d="M23.07,217c0-3.46.05-6.93.24-10.39"/><path class="cls-8" d="M21.53,212.51q.15-6.24.81-12.46"/><path class="cls-8" d="M19.33,205.29q.42-6,1.28-11.89"/><path class="cls-8" d="M17.28,197.77c.37-3.1.84-6.19,1.39-9.26"/><path class="cls-8" d="M1.8,188.51C2.38,184.74,3.11,181,4,177.28"/><path class="cls-8" d="M.5,181.56q1.16-5.88,2.75-11.64"/><path class="cls-8" d="M27.78,179.73c.64-2.52,1.35-5,2.11-7.51"/><path class="cls-8" d="M18.66,173.44q1.65-5.74,3.72-11.36"/><path class="cls-8" d="M32.47,169.76q1.65-4.94,3.64-9.74"/><path class="cls-8" d="M11.4,154.25q1.86-4.84,4-9.58"/><path class="cls-8" d="M37.08,157.92q1.88-4.29,4-8.46"/><path class="cls-8" d="M28.65,148.17q2.37-4.92,5.08-9.67"/><path class="cls-8" d="M28.84,139.06q2.22-4.12,4.69-8.1"/><path class="cls-8" d="M46.61,142.89q2.4-4,5-7.89"/><path class="cls-8" d="M48.7,137q2.56-3.92,5.36-7.68"/><path class="cls-8" d="M43.7,126.3q3.15-4.45,6.62-8.69"/><path class="cls-8" d="M46.47,118q2.56-3.27,5.31-6.4"/><path class="cls-8" d="M47,110.75q3.2-3.77,6.62-7.33"/><path class="cls-8" d="M48.45,103.36q3.52-3.83,7.29-7.42"/><path class="cls-8" d="M60.43,106.4q4-4.07,8.36-7.81"/><path class="cls-8" d="M71.31,106.4c1.93-1.74,3.9-3.44,5.92-5.08"/><path class="cls-8" d="M71.51,96.6q2.8-2.32,5.72-4.51"/><path class="cls-8" d="M70.59,88.38q4.71-3.69,9.69-7"/><path class="cls-8" d="M79.89,90.31Q85,86.67,90.3,83.43"/><path class="cls-8" d="M87.11,86.87q3.94-2.53,8-4.83"/><path class="cls-8" d="M97.84,92.93q4-2.37,8.21-4.49"/><path class="cls-8" d="M98.26,82q4.8-2.6,9.79-4.84"/><path class="cls-8" d="M102.44,77.18c3.73-1.84,7.54-3.52,11.4-5.05"/><path class="cls-8" d="M110.17,81q5.49-2.4,11.13-4.38"/><path class="cls-8" d="M117.57,78.82q4.62-1.75,9.34-3.23"/><path class="cls-8" d="M119.07,65.76q5.66-1.94,11.45-3.43"/><path class="cls-8" d="M125.79,66.69q6.24-1.86,12.6-3.2"/><path class="cls-8" d="M134.15,71.86q5.81-1.45,11.7-2.46"/><path class="cls-8" d="M141.67,73q4.85-1,9.74-1.62"/><path class="cls-8" d="M147.26,69.2q5.15-.81,10.32-1.28"/><path class="cls-8" d="M152.1,65.7c4-.48,7.93-.8,11.91-1"/><path class="cls-8" d="M160.21,69.42c3.12-.21,6.24-.34,9.36-.37"/></g></g></svg>