<svg xmlns="http://www.w3.org/2000/svg" viewBox="0 0 473.16 223.31"><defs><style>.cls-1{opacity:0.4;}.cls-2{fill:#41ab5d;}.cls-3{fill:#807dba;}.cls-4{fill:#fb6a4a;}.cls-5,.cls-6,.cls-7{fill:none;stroke-linecap:round;stroke-linejoin:round;stroke-width:0.7px;}.cls-5{stroke:#2aa640;}.cls-6{stroke:#8057d0;}.cls-7{stroke:#ff5337;}</style></defs><title>Asset 4</title><g id="Layer_2" data-name="Layer 2"><g id="Layer_1-2" data-name="Layer 1"><g class="cls-1"><path class="cls-2" d="M119.17,110.35l.11-52.83h1l-1.11,52.82Z"/><path class="cls-2" d="M119.17,110.35l2.32-52.78c.34,0,.67,0,1,.06l-3.32,52.72Z"/><path class="cls-2" d="M119.17,110.35l4.35-50.54,1,.09-5.3,50.45Z"/><path class="cls-2" d="M119.17,110.35l7-54.4,1,.14-8,54.26Z"/><path class="cls-2" d="M119.17,110.35l8.92-52.07,1,.18-9.9,51.89Z"/><path class="cls-2" d="M119.17,110.35,131.49,53l1.08.24-13.4,57.13Z"/><path class="cls-2" d="M119.17,110.35l13.25-51.14,1,.26-14.21,50.88Z"/><path class="cls-2" d="M119.17,110.35l16-52.47,1,.31-17,52.16Z"/><path class="cls-2" d="M119.17,110.35,136.65,60.5l.94.33-18.42,49.52Z"/><path class="cls-2" d="M119.17,110.35l20.3-50.95q.48.18,1,.39l-21.26,50.56Z"/><path class="cls-2" d="M119.17,110.35l22.41-50.06.94.43-23.35,49.63Z"/><path class="cls-2" d="M119.17,110.35l25.36-50.82c.32.16.64.32.95.49l-26.31,50.33Z"/><path class="cls-2" d="M119.17,110.35l25.55-46.24.87.49-26.42,45.75Z"/><path class="cls-2" d="M119.17,110.35l24-39.5.74.46-24.78,39Z"/><path class="cls-2" d="M119.17,110.35l27-40.37.75.51-27.7,39.86Z"/><path class="cls-2" d="M119.17,110.35,151.5,66l.83.62-33.16,43.69Z"/><path class="cls-2" d="M119.17,110.35l31.59-39.69.75.6-32.34,39.09Z"/><path class="cls-2" d="M119.17,110.35l34.6-39.92.75.66-35.35,39.26Z"/><path class="cls-2" d="M119.17,110.35l40.26-42.69.8.76-41.06,41.93Z"/><path class="cls-2" d="M119.17,110.35l39.27-38.29c.24.24.48.49.71.74l-40,37.55Z"/><path class="cls-2" d="M119.17,110.35l43.69-39.17c.25.27.49.55.73.83l-44.42,38.34Z"/><path class="cls-2" d="M119.17,110.35l42.34-34.87.64.8-43,34.07Z"/><path class="cls-2" d="M119.17,110.35l35-26.42c.17.21.33.44.5.66l-35.46,25.76Z"/><path class="cls-2" d="M119.17,110.35,167.43,77c.21.3.41.61.62.92l-48.88,32.47Z"/><path class="cls-2" d="M119.17,110.35l52.65-33.26c.21.33.42.66.62,1l-53.27,32.26Z"/><path class="cls-2" d="M119.17,110.35l49.25-28.3c.18.31.35.62.52.94l-49.77,27.36Z"/><path class="cls-2" d="M119.17,110.35l50.39-26.21c.16.32.33.64.48,1l-50.87,25.26Z"/><path class="cls-2" d="M119.17,110.35,168.85,87.1c.14.31.29.62.43.94l-50.11,22.31Z"/><path class="cls-2" d="M119.17,110.35,167.91,90c.13.31.26.61.38.92l-49.12,19.45Z"/><path class="cls-2" d="M119.17,110.35l53.28-19.69.36,1-53.64,18.68Z"/><path class="cls-2" d="M119.17,110.35l54.05-17.44c.11.34.22.68.32,1l-54.37,16.42Z"/><path class="cls-2" d="M119.17,110.35,172,95.71l.27,1-53.13,13.64Z"/><path class="cls-2" d="M119.17,110.35,172.6,97.94c.07.33.15.67.22,1l-53.65,11.41Z"/><path class="cls-2" d="M119.17,110.35l51.91-9.79.18,1-52.09,8.81Z"/><path class="cls-2" d="M119.17,110.35l54.28-7.9c.05.34.09.68.14,1l-54.42,6.88Z"/><path class="cls-2" d="M119.17,110.35l48.28-5,.09.91-48.37,4.06Z"/><path class="cls-2" d="M119.17,110.35l50.63-3.08c0,.32,0,.64,0,1l-50.68,2.13Z"/><path class="cls-2" d="M119.17,110.35l54.84-1c0,.35,0,.69,0,1Z"/><path class="cls-2" d="M119.17,110.35l50.71,1.17c0,.32,0,.63,0,1l-50.68-2.12Z"/><path class="cls-2" d="M119.17,110.35l54.73,3.56c0,.34,0,.68-.07,1l-54.66-4.59Z"/><path class="cls-2" d="M119.17,110.35l50.44,5.41c0,.31-.07.63-.11.95l-50.33-6.36Z"/><path class="cls-2" d="M119.17,110.35l50.17,7.51-.15,1-50-8.46Z"/><path class="cls-2" d="M119.17,110.35,169,120c-.06.31-.12.62-.19.93l-49.62-10.54Z"/><path class="cls-2" d="M119.17,110.35l55.27,13.08c-.08.35-.17.7-.26,1l-55-14.12Z"/><path class="cls-2" d="M119.17,110.35l60,16.87-.33,1.13-59.62-18Z"/><path class="cls-2" d="M119.17,110.35l50.21,16.43c-.1.31-.21.63-.32.94l-49.89-17.37Z"/><path class="cls-2" d="M119.17,110.35l53.19,19.91c-.12.33-.25.66-.38,1l-52.81-20.91Z"/><path class="cls-2" d="M119.17,110.35l48.66,20.57c-.13.31-.26.61-.4.91l-48.26-21.48Z"/><path class="cls-2" d="M119.17,110.35l49.58,23.45-.45.93-49.13-24.38Z"/><path class="cls-2" d="M119.17,110.35l46.77,24.57-.48.88-46.29-25.45Z"/><path class="cls-3" d="M119.17,110.35l86.36,50.1c-.31.54-.63,1.08-.95,1.62l-85.41-51.72Z"/><path class="cls-3" d="M119.17,110.35l82.33,52.49c-.33.52-.66,1-1,1.54l-81.33-54Z"/><path class="cls-3" d="M119.17,110.35l83.64,58.39-1.12,1.56-82.52-60Z"/><path class="cls-3" d="M119.17,110.35l73.09,55.72c-.35.46-.71.91-1.06,1.36l-72-57.08Z"/><path class="cls-3" d="M119.17,110.35l76,63.1c-.4.48-.8,1-1.21,1.42l-74.75-64.52Z"/><path class="cls-3" d="M119.17,110.35l72.43,65.48c-.41.46-.83.91-1.25,1.36l-71.18-66.84Z"/><path class="cls-3" d="M119.17,110.35l71.19,70c-.44.45-.88.9-1.33,1.33l-69.86-71.33Z"/><path class="cls-3" d="M119.17,110.35,176,171.12l-1.15,1.06-55.68-61.83Z"/><path class="cls-3" d="M119.17,110.35l64.37,74.89-1.42,1.2-62.95-76.09Z"/><path class="cls-3" d="M119.17,110.35l56.2,71.21-1.35,1-54.85-72.25Z"/><path class="cls-3" d="M119.17,110.35l50.28,69.5-1.32.94-49-70.44Z"/><path class="cls-3" d="M119.17,110.35l52,78.6c-.49.33-1,.65-1.49,1l-50.5-79.57Z"/><path class="cls-3" d="M119.17,110.35l47.45,78.71-1.5.88-45.95-79.59Z"/><path class="cls-3" d="M119.17,110.35l47.92,87.59c-.55.3-1.1.6-1.66.89l-46.26-88.48Z"/><path class="cls-3" d="M119.17,110.35l38.54,78-1.48.72-37.06-78.76Z"/><path class="cls-3" d="M119.17,110.35l39.08,88.26-1.67.72-37.41-89Z"/><path class="cls-3" d="M119.17,110.35l35.76,90.86-1.72.66-34-91.52Z"/><path class="cls-3" d="M119.17,110.35l30.43,88c-.55.2-1.11.38-1.67.56l-28.76-88.52Z"/><path class="cls-3" d="M119.17,110.35l28,93.53q-.88.27-1.77.51l-26.26-94Z"/><path class="cls-3" d="M119.17,110.35l22.38,87.91-1.66.4-20.72-88.31Z"/><path class="cls-3" d="M119.17,110.35,140,209.11l-1.87.38-18.91-99.14Z"/><path class="cls-3" d="M119.17,110.35,134.31,201l-1.71.27-13.43-90.92Z"/><path class="cls-3" d="M119.17,110.35l12.57,101.22-1.91.22L119.17,110.35Z"/><path class="cls-3" d="M119.17,110.35l8.15,99.51-1.88.14-6.27-99.65Z"/><path class="cls-3" d="M119.17,110.35l3.8,95.31-1.8.06-2-95.37Z"/><path class="cls-3" d="M119.17,110.35l-.2,96.52-1.82,0,2-96.5Z"/><path class="cls-3" d="M119.17,110.35l-4.44,100.83-1.9-.1,6.34-100.73Z"/><path class="cls-3" d="M119.17,110.35,110.33,213l-1.93-.19,10.77-102.49Z"/><path class="cls-3" d="M119.17,110.35l-12.44,96.84c-.61-.07-1.22-.16-1.82-.25l14.26-96.59Z"/><path class="cls-3" d="M119.17,110.35,104.69,194.9l-1.59-.29,16.07-84.26Z"/><path class="cls-3" d="M119.17,110.35l-18.79,87.51-1.65-.37,20.44-87.14Z"/><path class="cls-3" d="M119.17,110.35,97,195.81l-1.61-.43,23.74-85Z"/><path class="cls-3" d="M119.17,110.35l-26.4,86.78c-.54-.16-1.09-.33-1.63-.51l28-86.27Z"/><path class="cls-3" d="M119.17,110.35,84.73,208.6l-1.85-.67,36.29-97.58Z"/><path class="cls-3" d="M119.17,110.35,83,201.06l-1.71-.7,37.84-90Z"/><path class="cls-3" d="M119.17,110.35l-39.9,89.11-1.67-.76,41.57-88.35Z"/><path class="cls-3" d="M119.17,110.35,74.59,199.69l-1.68-.86,46.26-88.48Z"/><path class="cls-3" d="M119.17,110.35,72.5,194.83c-.54-.29-1.06-.59-1.59-.89l48.26-83.59Z"/><path class="cls-3" d="M119.17,110.35,70.79,189.86l-1.49-.92,49.87-78.59Z"/><path class="cls-3" d="M119.17,110.35l-51,76.44-1.43-1,52.45-75.46Z"/><path class="cls-3" d="M119.17,110.35l-56.9,78-1.45-1.09,58.35-76.88Z"/><path class="cls-3" d="M119.17,110.35l-61.5,77.26-1.44-1.17,62.94-76.09Z"/><path class="cls-3" d="M119.17,110.35,59,179.79l-1.29-1.14,61.49-68.3Z"/><path class="cls-3" d="M119.17,110.35,62.08,170.88c-.38-.35-.75-.72-1.13-1.08l58.22-59.45Z"/><path class="cls-3" d="M119.17,110.35,51.7,176.14l-1.23-1.28,68.7-64.51Z"/><path class="cls-3" d="M119.17,110.35,49,173.26c-.4-.44-.79-.88-1.18-1.33l71.34-61.58Z"/><path class="cls-3" d="M119.17,110.35,46.43,170.27c-.37-.46-.75-.92-1.11-1.38l73.85-58.54Z"/><path class="cls-3" d="M119.17,110.35l-76.1,57.51L42,166.42l77.17-56.07Z"/><path class="cls-3" d="M119.17,110.35,54.05,155.41l-.84-1.24,66-43.82Z"/><path class="cls-3" d="M119.17,110.35,40.48,160.06l-.93-1.49,79.62-48.22Z"/><path class="cls-4" d="M119.17,110.35,21.09,166.7c-.36-.61-.71-1.23-1.05-1.85l99.13-54.5Z"/><path class="cls-4" d="M119.17,110.35l-92.36,48c-.3-.58-.6-1.16-.89-1.75l93.25-46.29Z"/><path class="cls-4" d="M119.17,110.35,17.59,157.89c-.3-.64-.59-1.28-.88-1.92l102.46-45.62Z"/><path class="cls-4" d="M119.17,110.35,18.41,152.46c-.27-.64-.53-1.27-.78-1.91l101.54-40.2Z"/><path class="cls-4" d="M119.17,110.35,14.88,148.89c-.24-.66-.48-1.32-.71-2l105-36.56Z"/><path class="cls-4" d="M119.17,110.35l-113,36.46c-.23-.71-.46-1.42-.67-2.14l113.68-34.32Z"/><path class="cls-4" d="M119.17,110.35l-94.1,26.06c-.16-.59-.32-1.19-.47-1.78l94.57-24.28Z"/><path class="cls-4" d="M119.17,110.35l-113,26.24c-.17-.71-.32-1.42-.48-2.13l113.44-24.11Z"/><path class="cls-4" d="M119.17,110.35,9.91,131c-.12-.68-.25-1.37-.36-2.06l109.62-18.54Z"/><path class="cls-4" d="M119.17,110.35,6.28,126.78c-.1-.71-.2-1.42-.29-2.13l113.18-14.3Z"/><path class="cls-4" d="M119.17,110.35,15.61,121q-.11-1-.18-2l103.74-8.71Z"/><path class="cls-4" d="M119.17,110.35l-106,6.44c0-.66-.08-1.33-.1-2l106.08-4.44Z"/><path class="cls-4" d="M119.17,110.35,11,112.39c0-.68,0-1.36,0-2Z"/><path class="cls-4" d="M119.17,110.35,16.14,108c0-.64,0-1.29.06-1.94l103,4.32Z"/><path class="cls-4" d="M119.17,110.35,15.28,103.59q.06-1,.15-2l103.74,8.71Z"/><path class="cls-4" d="M119.17,110.35,13.6,99c.07-.67.15-1.33.23-2l105.34,13.31Z"/><path class="cls-4" d="M119.17,110.35l-107-16c.1-.68.21-1.35.32-2l106.69,18Z"/><path class="cls-4" d="M119.17,110.35,1.67,87.68l.45-2.21,117.05,24.88Z"/><path class="cls-4" d="M119.17,110.35,1,82.36c.18-.74.36-1.48.55-2.22l117.65,30.21Z"/><path class="cls-4" d="M119.17,110.35,20,82.43c.17-.63.35-1.25.54-1.87l98.66,29.79Z"/><path class="cls-4" d="M119.17,110.35,14.44,76.07c.21-.65.43-1.31.66-2l104.07,36.24Z"/><path class="cls-4" d="M119.17,110.35,23.64,74.59l.69-1.79,94.84,37.55Z"/><path class="cls-4" d="M119.17,110.35,9,63.75c.29-.7.59-1.39.89-2.07l109.32,48.67Z"/><path class="cls-4" d="M119.17,110.35,27,66.73c.27-.58.55-1.16.84-1.73l91.36,45.35Z"/><path class="cls-4" d="M119.17,110.35,21.62,59.09c.32-.61.65-1.22,1-1.83l96.57,53.09Z"/><path class="cls-4" d="M119.17,110.35,21.32,53.58c.36-.61.72-1.22,1.09-1.83l96.76,58.6Z"/><path class="cls-4" d="M119.17,110.35,34.07,56.09c.34-.53.69-1.07,1-1.59l84.06,55.85Z"/><path class="cls-4" d="M119.17,110.35,35.54,52c.36-.53.74-1.05,1.11-1.57l82.52,60Z"/><path class="cls-4" d="M119.17,110.35,32.32,44.14c.42-.55.84-1.09,1.27-1.63l85.58,67.84Z"/><path class="cls-4" d="M119.17,110.35l-85.52-71c.45-.54.9-1.07,1.36-1.6l84.16,72.65Z"/><path class="cls-4" d="M119.17,110.35,34.55,33.84c.48-.54,1-1.06,1.46-1.59l83.16,78.1Z"/><path class="cls-4" d="M119.17,110.35l-83.35-82q.76-.78,1.56-1.56l81.79,83.53Z"/><path class="cls-4" d="M119.17,110.35,44.58,30.58c.5-.47,1-.93,1.52-1.39l73.07,81.16Z"/><path class="cls-4" d="M119.17,110.35l-67.86-79,1.5-1.26,66.36,80.22Z"/><path class="cls-4" d="M119.17,110.35,51.52,24.62c.53-.43,1.08-.85,1.62-1.26l66,87Z"/><path class="cls-4" d="M119.17,110.35,52.31,17.92l1.75-1.25,65.11,93.68Z"/><path class="cls-4" d="M119.17,110.35,58.93,19.26l1.72-1.12,58.52,92.21Z"/><path class="cls-4" d="M119.17,110.35,63.31,17.67c.58-.35,1.17-.69,1.76-1l54.1,93.71Z"/><path class="cls-4" d="M119.17,110.35,70.73,21.8l1.68-.89,46.76,89.44Z"/><path class="cls-4" d="M119.17,110.35,71.71,14.23l1.82-.88,45.64,97Z"/><path class="cls-4" d="M119.17,110.35,75,10.49l1.89-.82,42.32,100.68Z"/><path class="cls-4" d="M119.17,110.35,81.05,13.47l1.83-.7,36.29,97.58Z"/><path class="cls-4" d="M119.17,110.35,85.14,12,87,11.33l32.17,99Z"/><path class="cls-4" d="M119.17,110.35,87,2.91l2-.59,30.16,108Z"/><path class="cls-4" d="M119.17,110.35,92,3.55l2-.49,25.16,107.29Z"/><path class="cls-4" d="M119.17,110.35,97.53,7.45c.64-.14,1.29-.27,1.94-.39l19.7,103.29Z"/><path class="cls-4" d="M119.17,110.35,102.2,8.69l1.92-.3,15,102Z"/><path class="cls-4" d="M119.17,110.35,106.21,6l2-.23,11,104.58Z"/><path class="cls-4" d="M119.17,110.35,110.43,3.51q1-.09,2-.15l6.73,107Z"/><path class="cls-4" d="M119.17,110.35,115,6.32c.65,0,1.31-.05,2-.06l2.18,104.09Z"/></g><path class="cls-5" d="M119.4,57.52h.73"/><path class="cls-5" d="M121.64,57.56l.73,0"/><path class="cls-5" d="M123.63,59.78l.73.06"/><path class="cls-5" d="M126.27,56,127,56"/><path class="cls-5" d="M128.22,58.28l.72.12"/><path class="cls-5" d="M131.29,53l1.43.3"/><path class="cls-5" d="M132.38,59.21l1.06.27"/><path class="cls-5" d="M135.3,57.88l.7.21"/><path class="cls-5" d="M136.8,60.54l.69.24"/><path class="cls-5" d="M139.78,59.53l.34.13"/><path class="cls-5" d="M141.75,60.35l.67.3"/><path class="cls-5" d="M144.65,59.59l.65.33"/><path class="cls-5" d="M145,64.28l.32.17"/><path class="cls-5" d="M143.47,71l.31.19"/><path class="cls-5" d="M146.21,70.06l.61.4"/><path class="cls-5" d="M151.16,65.94l1.18.86"/><path class="cls-5" d="M150.6,70.46l1.15.92"/><path class="cls-5" d="M153.69,70.49l.83.72"/><path class="cls-5" d="M159.43,67.69l.8.75"/><path class="cls-5" d="M158.39,72l.76.78"/><path class="cls-5" d="M163,71.25l.49.55"/><path class="cls-5" d="M161.38,75.33l.93,1.13"/><path class="cls-5" d="M154.19,83.93l.44.58"/><path class="cls-5" d="M167.22,76.57c.35.49.69,1,1,1.5"/><path class="cls-5" d="M172,77.21l.39.62"/><path class="cls-5" d="M168.5,82.2c.13.21.25.42.37.63"/><path class="cls-5" d="M169.43,84l.68,1.3"/><path class="cls-5" d="M168.94,87.26c.11.22.21.44.31.67"/><path class="cls-5" d="M167.91,90.09c.09.22.18.45.28.67"/><path class="cls-5" d="M172.48,90.76l.25.69"/><path class="cls-5" d="M173.27,93.08c.08.23.15.46.23.7"/><path class="cls-5" d="M172,95.5q.21.7.39,1.41"/><path class="cls-5" d="M172.66,98.26l.09.36"/><path class="cls-5" d="M171.12,100.68c0,.24.09.48.14.71"/><path class="cls-5" d="M173.52,102.78c0,.12,0,.24,0,.37"/><path class="cls-5" d="M167.5,105.45c0,.25.05.49.07.73"/><path class="cls-5" d="M169.81,107.4c0,.24,0,.48,0,.73"/><path class="cls-5" d="M174,109.65V110"/><path class="cls-5" d="M169.89,111.63c0,.25,0,.49,0,.73"/><path class="cls-5" d="M173.93,114.08c0,.24,0,.48-.05.73"/><path class="cls-5" d="M169.61,115.67l-.12,1.1"/><path class="cls-5" d="M169.29,117.72c0,.36-.11.73-.16,1.09"/><path class="cls-5" d="M169.05,120.08c-.05.24-.09.48-.14.72"/><path class="cls-5" d="M174.56,122.81c-.16.72-.33,1.43-.5,2.14"/><path class="cls-5" d="M179.12,127.08c-.13.47-.26.94-.4,1.41"/><path class="cls-5" d="M169.38,126.68c-.11.35-.23.69-.34,1"/><path class="cls-5" d="M172.31,130.45c-.08.23-.17.46-.26.69"/><path class="cls-5" d="M167.73,131.06c-.09.23-.19.45-.28.68"/><path class="cls-5" d="M168.65,133.94l-.31.66"/><path class="cls-5" d="M165.94,135l-.34.65"/><path class="cls-6" d="M206.33,159c-.83,1.5-1.68,3-2.57,4.43"/><path class="cls-6" d="M202.46,161.19q-1.43,2.35-3,4.63"/><path class="cls-6" d="M203.76,167.42q-1.51,2.28-3.14,4.5"/><path class="cls-6" d="M193.15,164.86q-1.4,1.92-2.88,3.78"/><path class="cls-6" d="M196.29,172q-1.69,2.15-3.5,4.22"/><path class="cls-6" d="M192.49,174.87c-1,1.2-2.1,2.38-3.18,3.53"/><path class="cls-6" d="M191.6,179q-2,2.13-4.11,4.17"/><path class="cls-6" d="M176.7,170.63c-.87.85-1.76,1.68-2.67,2.5"/><path class="cls-6" d="M184.48,184.18c-1.18,1.06-2.39,2.1-3.61,3.1"/><path class="cls-6" d="M176.69,180.5q-2,1.63-4,3.17"/><path class="cls-6" d="M170.22,179.43c-1,.73-2,1.45-3,2.14"/><path class="cls-6" d="M172.67,187.94q-2.25,1.56-4.57,3"/><path class="cls-6" d="M167.51,188.51c-1,.64-2.08,1.27-3.13,1.88"/><path class="cls-6" d="M168.54,197.33q-2.22,1.28-4.5,2.45"/><path class="cls-6" d="M159.4,187.81q-2.11,1.11-4.26,2.11"/><path class="cls-6" d="M159.61,198.05q-2.33,1.08-4.68,2.07"/><path class="cls-6" d="M156.75,200.37q-2.52,1.08-5.1,2"/><path class="cls-6" d="M150.5,198q-1.71.63-3.45,1.2"/><path class="cls-6" d="M149,203.28q-2.61.85-5.25,1.58"/><path class="cls-6" d="M142.61,197.84q-2,.53-3.9,1"/><path class="cls-6" d="M142.19,208.62c-2.14.51-4.28,1-6.44,1.35"/><path class="cls-6" d="M135.7,200.73c-1.56.29-3.12.55-4.69.78"/><path class="cls-6" d="M133.45,211.45q-2.72.41-5.45.68"/><path class="cls-6" d="M128.51,209.82c-1.46.14-2.91.26-4.37.35"/><path class="cls-6" d="M124.44,205.62c-1.58.1-3.17.16-4.75.19"/><path class="cls-6" d="M120.71,206.8c-1.71,0-3.42,0-5.12,0"/><path class="cls-6" d="M116.34,211.29c-1.7,0-3.41-.11-5.11-.22"/><path class="cls-6" d="M112.51,213.3q-3.11-.18-6.2-.54"/><path class="cls-6" d="M108.54,207.22q-2.73-.28-5.44-.7"/><path class="cls-6" d="M105.51,195.14c-1.2-.18-2.41-.39-3.6-.62"/><path class="cls-6" d="M101.44,198.2c-1.32-.26-2.63-.54-3.94-.85"/><path class="cls-6" d="M98.12,196.27c-1.19-.29-2.37-.59-3.55-.92"/><path class="cls-6" d="M94.05,197.5c-1.41-.39-2.81-.82-4.2-1.27"/><path class="cls-6" d="M86.44,209.12q-2.79-.9-5.52-1.94"/><path class="cls-6" d="M84.73,201.72c-1.72-.64-3.41-1.31-5.1-2"/><path class="cls-6" d="M81.07,200.17q-2.7-1.12-5.34-2.4"/><path class="cls-6" d="M76.28,200.48c-1.66-.78-3.29-1.6-4.91-2.45"/><path class="cls-6" d="M73.73,195.41c-1.41-.73-2.79-1.5-4.16-2.3"/><path class="cls-6" d="M72.08,190.67c-1.37-.79-2.72-1.62-4.06-2.47"/><path class="cls-6" d="M69.3,187.61q-2-1.28-4-2.64"/><path class="cls-6" d="M63.28,189.07c-1.2-.84-2.39-1.7-3.55-2.58"/><path class="cls-6" d="M58.88,188.54c-1.36-1-2.7-2.1-4-3.19"/><path class="cls-6" d="M60,180.64c-1.12-.93-2.23-1.89-3.31-2.87"/><path class="cls-6" d="M62.83,171.52c-.9-.82-1.78-1.66-2.66-2.51"/><path class="cls-6" d="M52.82,177.24c-1.13-1.11-2.24-2.25-3.32-3.4"/><path class="cls-6" d="M49.87,174.2c-1-1.07-2-2.16-2.93-3.27"/><path class="cls-6" d="M47.44,171.53c-1-1.2-2-2.42-3-3.67"/><path class="cls-6" d="M44,169.1c-1-1.24-1.94-2.51-2.86-3.79"/><path class="cls-6" d="M54.7,156.46c-.79-1.08-1.55-2.19-2.29-3.3"/><path class="cls-6" d="M41.44,161.31c-.88-1.32-1.72-2.66-2.54-4"/><path class="cls-7" d="M23.05,169.72q-2.44-3.87-4.56-7.93"/><path class="cls-7" d="M28,160.51c-1.14-2-2.21-4.08-3.21-6.17"/><path class="cls-7" d="M18.78,160.13c-1.17-2.28-2.25-4.6-3.26-6.95"/><path class="cls-7" d="M19.24,154.34c-.91-2-1.75-4-2.54-6.07"/><path class="cls-7" d="M16,151.52c-1-2.48-1.95-5-2.79-7.54"/><path class="cls-7" d="M7.17,149.28c-.87-2.4-1.66-4.84-2.36-7.3"/><path class="cls-7" d="M25.92,138.32c-.61-2-1.16-4-1.66-6"/><path class="cls-7" d="M6.74,138.53c-.56-2.13-1.06-4.26-1.49-6.42"/><path class="cls-7" d="M10.18,133.25c-.48-2.15-.88-4.31-1.22-6.47"/><path class="cls-7" d="M6.87,130.08c-.56-3-1-6-1.31-9"/><path class="cls-7" d="M16.09,123.72c-.33-2.41-.58-4.84-.75-7.27"/><path class="cls-7" d="M13.34,119.15q-.31-3.47-.42-6.94"/><path class="cls-7" d="M11,115.21q-.19-3.84-.14-7.68"/><path class="cls-7" d="M16.23,110.35c0-2.44,0-4.88.17-7.31"/><path class="cls-7" d="M15.14,107.16q.12-4.38.57-8.75"/><path class="cls-7" d="M13.6,102.09q.28-4.2.89-8.36"/><path class="cls-7" d="M12.16,96.8q.39-3.27,1-6.51"/><path class="cls-7" d="M1.26,90.29c.42-2.65.92-5.29,1.53-7.9"/><path class="cls-7" d="M.35,85.39q.81-4.12,1.94-8.18"/><path class="cls-7" d="M19.54,84.11q.67-2.65,1.49-5.28"/><path class="cls-7" d="M13.13,79.69q1.15-4.05,2.61-8"/><path class="cls-7" d="M22.84,77.1Q24,73.62,25.4,70.25"/><path class="cls-7" d="M8,66.19c.87-2.28,1.82-4.52,2.85-6.74"/><path class="cls-7" d="M26.08,68.77q1.32-3,2.81-5.95"/><path class="cls-7" d="M20.15,61.91c1.11-2.31,2.3-4.57,3.57-6.8"/><path class="cls-7" d="M20.28,55.5q1.57-2.89,3.31-5.69"/><path class="cls-7" d="M32.78,58.19q1.69-2.82,3.54-5.55"/><path class="cls-7" d="M34.25,54c1.21-1.83,2.46-3.63,3.77-5.39"/><path class="cls-7" d="M30.74,46.52c1.48-2.08,3-4.12,4.65-6.1"/><path class="cls-7" d="M32.68,40.7q1.82-2.3,3.74-4.5"/><path class="cls-7" d="M33.06,35.59c1.5-1.77,3.06-3.49,4.66-5.15"/><path class="cls-7" d="M34.08,30.39q2.47-2.68,5.13-5.21"/><path class="cls-7" d="M42.51,32.53c1.89-1.9,3.85-3.74,5.87-5.49"/><path class="cls-7" d="M50.16,32.53c1.36-1.23,2.74-2.42,4.16-3.58"/><path class="cls-7" d="M50.3,25.64q2-1.63,4-3.17"/><path class="cls-7" d="M49.65,19.86c2.21-1.73,4.48-3.38,6.81-4.93"/><path class="cls-7" d="M56.2,21.21q3.55-2.57,7.32-4.84"/><path class="cls-7" d="M61.28,18.79c1.84-1.18,3.72-2.32,5.63-3.39"/><path class="cls-7" d="M68.82,23.06c1.89-1.11,3.82-2.17,5.78-3.16"/><path class="cls-7" d="M69.11,15.4c2.26-1.22,4.55-2.35,6.89-3.4"/><path class="cls-7" d="M72.05,12Q76,10,80.08,8.42"/><path class="cls-7" d="M77.49,14.67q3.86-1.68,7.83-3.08"/><path class="cls-7" d="M82.7,13.13q3.24-1.23,6.56-2.27"/><path class="cls-7" d="M83.75,4q4-1.37,8.06-2.42"/><path class="cls-7" d="M88.48,4.6C91.4,3.73,94.36,3,97.34,2.35"/><path class="cls-7" d="M94.36,8.24c2.72-.69,5.46-1.26,8.23-1.74"/><path class="cls-7" d="M99.65,9.07c2.27-.46,4.56-.84,6.85-1.15"/><path class="cls-7" d="M103.58,6.36q3.61-.57,7.26-.9"/><path class="cls-7" d="M107,3.9q4.18-.5,8.38-.68"/><path class="cls-7" d="M112.69,6.52q3.28-.22,6.58-.26"/><g class="cls-1"><path class="cls-2" d="M371.72,110.35l.21-97.22c.61,0,1.22,0,1.83,0l-2,97.2Z"/><path class="cls-2" d="M371.72,110.35l4.19-95.16,1.79.1-6,95.06Z"/><path class="cls-2" d="M371.72,110.35l8-92.88,1.75.16-9.75,92.72Z"/><path class="cls-2" d="M371.72,110.35,383.47,18.9c.57.07,1.15.15,1.72.24l-13.47,91.21Z"/><path class="cls-2" d="M371.72,110.35,388,15.49l1.79.32-18,94.54Z"/><path class="cls-2" d="M371.72,110.35l21-97.89c.62.14,1.23.27,1.84.42l-22.86,97.47Z"/><path class="cls-2" d="M371.72,110.35l23.12-89.26,1.68.46-24.8,88.8Z"/><path class="cls-2" d="M371.72,110.35l28-92.08,1.73.55-29.74,91.53Z"/><path class="cls-2" d="M371.72,110.35l29.82-85,1.59.58-31.41,84.46Z"/><path class="cls-2" d="M371.72,110.35,407,21.86c.56.23,1.11.45,1.66.69l-36.91,87.8Z"/><path class="cls-2" d="M371.72,110.35,412.64,19l1.71.79-42.63,90.59Z"/><path class="cls-2" d="M371.72,110.35,413.8,26l1.58.81-43.66,83.52Z"/><path class="cls-2" d="M371.72,110.35,417.3,27.86l1.54.87-47.12,81.62Z"/><path class="cls-2" d="M371.72,110.35,418,34.28l1.43.88-47.72,75.19Z"/><path class="cls-2" d="M371.72,110.35,429.37,24c.55.36,1.08.73,1.62,1.1l-59.27,85.28Z"/><path class="cls-2" d="M371.72,110.35,432.4,27.2,434,28.36l-62.23,82Z"/><path class="cls-2" d="M371.72,110.35,434.07,32c.5.39,1,.79,1.47,1.19l-63.82,77.14Z"/><path class="cls-2" d="M371.72,110.35,435.4,36.88c.47.4.92.81,1.38,1.22l-65.06,72.25Z"/><path class="cls-2" d="M371.72,110.35l70.62-74.89,1.4,1.35-72,73.54Z"/><path class="cls-2" d="M371.72,110.35l69.61-67.88,1.27,1.32-70.88,66.56Z"/><path class="cls-2" d="M371.72,110.35l74.54-66.84c.42.47.84.94,1.25,1.42l-75.79,65.42Z"/><path class="cls-2" d="M371.72,110.35l75-61.82c.39.47.78.95,1.16,1.43l-76.2,60.39Z"/><path class="cls-2" d="M371.72,110.35l73.56-55.59c.35.46.69.93,1,1.39l-74.59,54.2Z"/><path class="cls-2" d="M371.72,110.35,451.67,55c.35.5.69,1,1,1.52l-81,53.8Z"/><path class="cls-2" d="M371.72,110.35,451.4,60c.31.5.63,1,.93,1.51l-80.61,48.82Z"/><path class="cls-2" d="M371.72,110.35,455.17,62.4c.3.53.6,1.05.89,1.58l-84.34,46.37Z"/><path class="cls-2" d="M371.72,110.35,457.1,65.94c.28.54.56,1.08.83,1.62l-86.21,42.79Z"/><path class="cls-2" d="M371.72,110.35l88.94-41.63c.26.56.52,1.12.77,1.69l-89.71,39.94Z"/><path class="cls-2" d="M371.72,110.35l90.61-37.87c.23.57.47,1.15.69,1.72l-91.3,36.15Z"/><path class="cls-2" d="M371.72,110.35,459.17,78c.2.54.4,1.1.59,1.65l-88,30.66Z"/><path class="cls-2" d="M371.72,110.35l89.69-28.94c.18.57.36,1.13.53,1.7l-90.22,27.24Z"/><path class="cls-2" d="M371.72,110.35l96.49-26.72c.17.6.33,1.21.48,1.82l-97,24.9Z"/><path class="cls-2" d="M371.72,110.35l95.65-22.23c.14.61.28,1.21.4,1.81l-96,20.42Z"/><path class="cls-2" d="M371.72,110.35,471,91.62c.12.62.23,1.25.34,1.87l-99.65,16.86Z"/><path class="cls-2" d="M371.72,110.35,466,96.63c.09.59.17,1.19.25,1.78l-94.5,11.94Z"/><path class="cls-2" d="M371.72,110.35l95.74-9.86c.06.6.11,1.2.16,1.8l-95.9,8.06Z"/><path class="cls-2" d="M371.72,110.35l100.88-6.14c0,.64.07,1.27.1,1.91l-101,4.23Z"/><path class="cls-2" d="M371.72,110.35l95.23-1.8c0,.6,0,1.2,0,1.8Z"/><path class="cls-2" d="M371.72,110.35l90.09,2.07c0,.57,0,1.14-.06,1.7l-90-3.77Z"/><path class="cls-2" d="M371.72,110.35l97,6.31c0,.61-.08,1.21-.14,1.82l-96.88-8.13Z"/><path class="cls-2" d="M371.72,110.35l95.69,10.26q-.09.9-.21,1.8l-95.48-12.06Z"/><path class="cls-2" d="M371.72,110.35l90.16,13.5-.27,1.7-89.89-15.2Z"/><path class="cls-2" d="M371.72,110.35l88.48,17.07c-.11.55-.22,1.11-.34,1.66l-88.14-18.73Z"/><path class="cls-2" d="M371.72,110.35l93.65,22.17c-.14.59-.28,1.18-.43,1.76l-93.22-23.93Z"/><path class="cls-2" d="M371.72,110.35l93.59,26.34-.51,1.76-93.08-28.1Z"/><path class="cls-2" d="M371.72,110.35l89.57,29.31q-.27.84-.57,1.68l-89-31Z"/><path class="cls-2" d="M371.72,110.35l91.06,34.08-.66,1.71-90.4-35.79Z"/><path class="cls-2" d="M371.72,110.35l84.92,35.9c-.22.54-.45,1.07-.69,1.6l-84.23-37.5Z"/><path class="cls-2" d="M371.72,110.35l89.64,42.41c-.27.56-.54,1.12-.82,1.68l-88.82-44.09Z"/><path class="cls-2" d="M371.72,110.35l85.2,44.76c-.28.54-.57,1.07-.86,1.6l-84.34-46.36Z"/><path class="cls-3" d="M371.72,110.35l98.89,57.36-1.1,1.86-97.79-59.22Z"/><path class="cls-3" d="M371.72,110.35l92.09,58.71c-.37.58-.75,1.15-1.12,1.72l-91-60.43Z"/><path class="cls-3" d="M371.72,110.35l93,65-1.24,1.74-91.81-66.7Z"/><path class="cls-3" d="M371.72,110.35l80.37,61.27c-.38.5-.77,1-1.17,1.5l-79.2-62.77Z"/><path class="cls-3" d="M371.72,110.35l84.67,70.34c-.44.53-.89,1.06-1.34,1.58l-83.33-71.92Z"/><path class="cls-3" d="M371.72,110.35l76.35,69c-.43.48-.87,1-1.32,1.43l-75-70.46Z"/><path class="cls-3" d="M371.72,110.35l77.25,76-1.45,1.44-75.8-77.4Z"/><path class="cls-3" d="M371.72,110.35l65.06,69.57-1.33,1.21-63.73-70.78Z"/><path class="cls-3" d="M371.72,110.35,444,194.48l-1.6,1.35-70.72-85.48Z"/><path class="cls-3" d="M371.72,110.35l60.84,77.08-1.47,1.13-59.37-78.21Z"/><path class="cls-3" d="M371.72,110.35l56.41,78-1.48,1-54.93-79Z"/><path class="cls-3" d="M371.72,110.35l57.79,87.38-1.65,1.07-56.14-88.45Z"/><path class="cls-3" d="M371.72,110.35l54.55,90.5-1.71,1-52.84-91.51Z"/><path class="cls-3" d="M371.72,110.35l51.14,93.49c-.58.32-1.17.63-1.77.94l-49.37-94.43Z"/><path class="cls-3" d="M371.72,110.35l45.16,91.46-1.73.83-43.43-92.29Z"/><path class="cls-3" d="M371.72,110.35,417,212.57c-.64.29-1.29.56-1.94.84L371.72,110.35Z"/><path class="cls-3" d="M371.72,110.35l37.35,94.91c-.59.24-1.19.47-1.79.69l-35.56-95.6Z"/><path class="cls-3" d="M371.72,110.35l33.95,98.14c-.62.22-1.24.42-1.86.62l-32.09-98.76Z"/><path class="cls-3" d="M371.72,110.35l30.84,102.93-1.94.56-28.9-103.49Z"/><path class="cls-3" d="M371.72,110.35l25.16,98.85c-.62.15-1.24.31-1.87.45l-23.29-99.3Z"/><path class="cls-3" d="M371.72,110.35l21.57,102.52-1.94.38-19.63-102.9Z"/><path class="cls-3" d="M371.72,110.35l17.55,105.11-2,.31L371.72,110.35Z"/><path class="cls-3" d="M371.72,110.35l13.36,107.51-2,.23L371.72,110.35Z"/><path class="cls-3" d="M371.72,110.35l8.7,106.21-2,.14-6.69-106.35Z"/><path class="cls-3" d="M371.72,110.35l4.35,109.12c-.69,0-1.37.05-2.06.06l-2.29-109.18Z"/><path class="cls-3" d="M371.72,110.35l-.23,110.94-2.09,0,2.32-110.91Z"/><path class="cls-3" d="M371.72,110.35l-5,112.53-2.12-.11,7.07-112.42Z"/><path class="cls-3" d="M371.72,110.35l-9.59,111.38-2.09-.2,11.68-111.18Z"/><path class="cls-3" d="M371.72,110.35l-13.46,104.8c-.66-.08-1.32-.17-2-.27l15.43-104.53Z"/><path class="cls-3" d="M371.72,110.35,354.34,211.8l-1.9-.35,19.28-101.1Z"/><path class="cls-3" d="M371.72,110.35,350.5,209.16l-1.86-.42,23.08-98.39Z"/><path class="cls-3" d="M371.72,110.35l-25.34,97.83-1.84-.49,27.18-97.34Z"/><path class="cls-3" d="M371.72,110.35,341.5,209.7c-.63-.19-1.25-.38-1.87-.59l32.09-98.76Z"/><path class="cls-3" d="M371.72,110.35l-35,99.71-1.87-.67,36.83-99Z"/><path class="cls-3" d="M371.72,110.35l-37.05,93-1.74-.72,38.79-92.29Z"/><path class="cls-3" d="M371.72,110.35l-43.18,96.44-1.81-.83,45-95.61Z"/><path class="cls-3" d="M371.72,110.35l-49.91,100-1.88-1,51.79-99.07Z"/><path class="cls-3" d="M371.72,110.35l-52.39,94.82c-.59-.33-1.19-.66-1.77-1l54.16-93.82Z"/><path class="cls-3" d="M371.72,110.35l-53,87.13c-.55-.33-1.09-.67-1.63-1l54.65-86.12Z"/><path class="cls-3" d="M371.72,110.35l-56.1,84.06L314,193.34l57.68-83Z"/><path class="cls-3" d="M371.72,110.35,312.15,192l-1.53-1.13,61.1-80.5Z"/><path class="cls-3" d="M371.72,110.35l-66.36,83.37-1.56-1.26,67.92-82.11Z"/><path class="cls-3" d="M371.72,110.35l-68,78.47-1.47-1.3,69.49-77.17Z"/><path class="cls-3" d="M371.72,110.35l-66,70-1.31-1.26,67.33-68.76Z"/><path class="cls-3" d="M371.72,110.35l-73,71.21c-.45-.46-.89-.92-1.33-1.39l74.35-69.82Z"/><path class="cls-3" d="M371.72,110.35l-76.63,68.71c-.43-.48-.86-1-1.28-1.46l77.91-67.25Z"/><path class="cls-3" d="M371.72,110.35l-79.44,65.44c-.41-.5-.82-1-1.22-1.51l80.66-63.93Z"/><path class="cls-3" d="M371.72,110.35,286,175.13c-.41-.53-.81-1.08-1.21-1.62l86.93-63.16Z"/><path class="cls-3" d="M371.72,110.35l-80,55.32-1-1.52,81-53.8Z"/><path class="cls-3" d="M371.72,110.35l-87,55-1-1.65,88-53.32Z"/><path class="cls-4" d="M371.72,110.35l-93.93,54c-.34-.59-.67-1.18-1-1.78l94.93-52.19Z"/><path class="cls-4" d="M371.72,110.35l-92.13,47.92c-.3-.58-.6-1.16-.89-1.75l93-46.17Z"/><path class="cls-4" d="M371.72,110.35,267.43,159.16q-.46-1-.9-2l105.19-46.83Z"/><path class="cls-4" d="M371.72,110.35l-100,41.77c-.27-.63-.52-1.26-.77-1.89l100.72-39.88Z"/><path class="cls-4" d="M371.72,110.35,268.47,148.5c-.24-.65-.47-1.3-.7-1.95l104-36.2Z"/><path class="cls-4" d="M371.72,110.35,258.27,147c-.23-.71-.45-1.43-.67-2.15l114.12-34.45Z"/><path class="cls-4" d="M371.72,110.35l-91.79,25.42c-.16-.58-.31-1.16-.46-1.74l92.25-23.68Z"/><path class="cls-4" d="M371.72,110.35,258,136.78c-.16-.72-.32-1.43-.47-2.15l114.23-24.28Z"/><path class="cls-4" d="M371.72,110.35,261.87,131.07c-.13-.69-.26-1.39-.37-2.08l110.22-18.64Z"/><path class="cls-4" d="M371.72,110.35,257,127.05c-.1-.72-.2-1.44-.29-2.17l115.05-14.53Z"/><path class="cls-4" d="M371.72,110.35l-109.5,11.27c-.07-.68-.13-1.37-.19-2.06l109.69-9.21Z"/><path class="cls-4" d="M371.72,110.35l-109,6.63c0-.69-.07-1.37-.1-2.06l109.11-4.57Z"/><path class="cls-4" d="M371.72,110.35,259.1,112.47c0-.71,0-1.41,0-2.12Z"/><path class="cls-4" d="M371.72,110.35,268.82,108l.06-1.94,102.84,4.31Z"/><path class="cls-4" d="M371.72,110.35l-103.63-6.74q.06-1,.15-2l103.48,8.69Z"/><path class="cls-4" d="M371.72,110.35,263.14,98.71c.07-.69.15-1.37.23-2l108.35,13.69Z"/><path class="cls-4" d="M371.72,110.35,262.86,94c.1-.68.21-1.37.33-2.05l108.53,18.36Z"/><path class="cls-4" d="M371.72,110.35,253.89,87.61c.14-.74.29-1.47.45-2.21l117.38,24.95Z"/><path class="cls-4" d="M371.72,110.35,255,82.7c.17-.73.35-1.47.54-2.2l116.23,29.85Z"/><path class="cls-4" d="M371.72,110.35,270,81.72c.18-.64.36-1.28.56-1.91l101.15,30.54Z"/><path class="cls-4" d="M371.72,110.35,263.87,75.05c.22-.67.45-1.35.68-2l107.17,37.32Z"/><path class="cls-4" d="M371.72,110.35,276.19,74.59c.23-.6.46-1.19.7-1.79l94.83,37.55Z"/><path class="cls-4" d="M371.72,110.35,261.19,63.61l.9-2.07,109.63,48.81Z"/><path class="cls-4" d="M371.72,110.35,273.8,64c.29-.62.58-1.23.89-1.84l97,48.17Z"/><path class="cls-4" d="M371.72,110.35l-99-52c.33-.62.66-1.24,1-1.86l98,53.86Z"/><path class="cls-4" d="M371.72,110.35,271.41,52.15l1.11-1.88,99.2,60.08Z"/><path class="cls-4" d="M371.72,110.35l-90.6-57.77c.36-.57.73-1.13,1.1-1.7l89.5,59.47Z"/><path class="cls-4" d="M371.72,110.35l-87.37-61c.38-.55.77-1.1,1.16-1.64l86.21,62.64Z"/><path class="cls-4" d="M371.72,110.35,284.87,44.14c.42-.55.84-1.09,1.27-1.63l85.58,67.84Z"/><path class="cls-4" d="M371.72,110.35l-89.2-74.11,1.41-1.67,87.79,75.78Z"/><path class="cls-4" d="M371.72,110.35,284.49,31.47c.5-.54,1-1.09,1.51-1.63l85.72,80.51Z"/><path class="cls-4" d="M371.72,110.35,285,25.1q.79-.81,1.62-1.62l85.06,86.87Z"/><path class="cls-4" d="M371.72,110.35,297.13,30.58c.5-.47,1-.93,1.52-1.39l73.07,81.16Z"/><path class="cls-4" d="M371.72,110.35,301.11,28.19c.51-.44,1-.88,1.56-1.31l69.05,83.47Z"/><path class="cls-4" d="M371.72,110.35l-66-83.65c.52-.42,1.05-.83,1.58-1.23l64.43,84.88Z"/><path class="cls-4" d="M371.72,110.35,301.39,13.12c.61-.45,1.23-.88,1.84-1.31l68.49,98.54Z"/><path class="cls-4" d="M371.72,110.35,312,20q.85-.57,1.71-1.11l58.05,91.47Z"/><path class="cls-4" d="M371.72,110.35,315.35,16.82q.87-.54,1.77-1.05l54.6,94.58Z"/><path class="cls-4" d="M371.72,110.35,321,17.65c.58-.32,1.17-.64,1.76-.94l49,93.64Z"/><path class="cls-4" d="M371.72,110.35,321.48,8.59l1.92-.92,48.32,102.68Z"/><path class="cls-4" d="M371.72,110.35,326.47,8.13c.64-.29,1.28-.57,1.93-.84l43.32,103.06Z"/><path class="cls-4" d="M371.72,110.35,330.17,4.75l2-.77,39.55,106.37Z"/><path class="cls-4" d="M371.72,110.35,337.78,12.2l1.85-.62,32.09,98.77Z"/><path class="cls-4" d="M371.72,110.35,339.39,2.45c.68-.21,1.36-.4,2-.59l30.29,108.49Z"/><path class="cls-4" d="M371.72,110.35,344.15,2l2-.5,25.53,108.84Z"/><path class="cls-4" d="M371.72,110.35,348.71,1l2.06-.41,21,109.81Z"/><path class="cls-4" d="M371.72,110.35,353.88,3.49l2-.31,15.82,107.17Z"/><path class="cls-4" d="M371.72,110.35,358.15,1.11l2.07-.24,11.5,109.48Z"/><path class="cls-4" d="M371.72,110.35,363,3.25l2-.14,6.74,107.24Z"/><path class="cls-4" d="M371.72,110.35,367.55,5.67q1,0,2-.06l2.19,104.74Z"/></g><path class="cls-5" d="M370.36,13.12c.79,0,1.59,0,2.38,0s1.59,0,2.38,0"/><path class="cls-5" d="M374.71,15.09l2,.09,2,.12"/><path class="cls-5" d="M378.46,17.26l2.17.18,2.17.23"/><path class="cls-5" d="M382.33,18.68l2.09.27,2.09.31"/><path class="cls-5" d="M386.3,15.21l2.42.41,2.41.47"/><path class="cls-5" d="M391.22,11.86c.86.18,1.73.37,2.59.57s1.72.41,2.58.63"/><path class="cls-5" d="M393.35,20.45l2.24.62c.74.21,1.48.44,2.21.67"/><path class="cls-5" d="M398.45,17.94c.74.23,1.47.47,2.2.72s1.46.5,2.19.77"/><path class="cls-5" d="M400.64,24.59c.62.23,1.24.46,1.85.71l1.83.73"/><path class="cls-5" d="M405.8,21.26l1.94.83,1.92.87"/><path class="cls-5" d="M411.18,18.29q1.14.53,2.28,1.08l2.25,1.13"/><path class="cls-5" d="M412.46,25.3l2,1.1,2,1.15"/><path class="cls-5" d="M416.21,27.2,418,28.26l1.73,1.09"/><path class="cls-5" d="M416.91,33.64l1.7,1.13c.57.38,1.13.77,1.69,1.16"/><path class="cls-5" d="M428,23c.75.52,1.48,1.05,2.22,1.59s1.45,1.08,2.17,1.64"/><path class="cls-5" d="M431,25.92c.79.62,1.57,1.24,2.34,1.87s1.54,1.28,2.29,1.94"/><path class="cls-5" d="M432.88,30.67c.66.59,1.32,1.18,2,1.78s1.29,1.21,1.93,1.83"/><path class="cls-5" d="M434.31,35.67,436,37.36c.55.57,1.1,1.15,1.64,1.73"/><path class="cls-5" d="M441.35,34.39c.59.63,1.17,1.27,1.74,1.91s1.14,1.3,1.7,2"/><path class="cls-5" d="M440.31,40.94c.56.67,1.1,1.33,1.64,2s1.07,1.35,1.59,2"/><path class="cls-5" d="M445.61,42.47c.47.62.92,1.24,1.37,1.87s.9,1.26,1.33,1.89"/><path class="cls-5" d="M446.15,47.28c.47.7.94,1.4,1.39,2.1s.91,1.41,1.35,2.13"/><path class="cls-5" d="M444.35,53.21c.43.7.84,1.4,1.26,2.11s.81,1.41,1.2,2.13"/><path class="cls-5" d="M451.3,53.46c.36.65.71,1.32,1.05,2s.69,1.34,1,2"/><path class="cls-5" d="M450.92,58.7c.34.7.67,1.39,1,2.09s.64,1.41.95,2.12"/><path class="cls-5" d="M454.64,61.06c.31.6.61,1.21.92,1.82s.59,1.23.88,1.84"/><path class="cls-5" d="M456.69,64.77c.32.71.63,1.41.94,2.12s.6,1.42.89,2.14"/><path class="cls-5" d="M460.16,67.06c.34.72.67,1.44,1,2.17s.63,1.46.93,2.19"/><path class="cls-5" d="M461.82,71.16c.29.72.58,1.44.86,2.16l.81,2.17"/><path class="cls-5" d="M458.71,76.83c.26.68.51,1.36.75,2s.47,1.37.7,2.06"/><path class="cls-5" d="M461.22,79.93c.22.67.43,1.34.64,2s.4,1.35.59,2"/><path class="cls-5" d="M467.89,82.18c.19.75.38,1.5.55,2.25s.35,1.51.51,2.26"/><path class="cls-5" d="M467,86.31c.2.9.39,1.82.57,2.73s.35,1.83.5,2.75"/><path class="cls-5" d="M470.81,89.64c.15.94.3,1.89.42,2.83s.25,1.89.36,2.84"/><path class="cls-5" d="M465.86,95.32c.08.7.17,1.39.24,2.09s.14,1.41.2,2.11"/><path class="cls-5" d="M467.38,99.15c.08.72.15,1.44.22,2.17s.12,1.45.17,2.17"/><path class="cls-5" d="M472.58,102.52c.06.79.1,1.58.14,2.38s.07,1.59.09,2.38"/><path class="cls-5" d="M467,107.47c0,.7,0,1.4,0,2.11s0,1.41,0,2.11"/><path class="cls-5" d="M462,111.22c0,.68-.09,1.36-.14,2s-.11,1.36-.18,2"/><path class="cls-5" d="M469,115.29c-.08.77-.16,1.54-.25,2.3s-.19,1.54-.3,2.3"/><path class="cls-5" d="M467.77,119.72c-.12.78-.24,1.57-.37,2.35s-.27,1.57-.41,2.35"/><path class="cls-5" d="M461.85,123.23l-.15,1.56c-.06.52-.11,1-.18,1.55"/><path class="cls-5" d="M460.42,126.05c-.13.71-.27,1.43-.42,2.14s-.31,1.42-.47,2.12"/><path class="cls-5" d="M466,130.86q-.28,1.15-.6,2.31c-.21.77-.43,1.53-.66,2.29"/><path class="cls-5" d="M465.67,134.92c-.18.84-.37,1.68-.56,2.52s-.41,1.68-.63,2.51"/><path class="cls-5" d="M461.46,138.62c-.2.65-.4,1.3-.61,1.95s-.43,1.3-.65,1.94"/><path class="cls-5" d="M463.25,142.51c-.28.82-.57,1.63-.87,2.44s-.6,1.61-.92,2.42"/><path class="cls-5" d="M457,144.94q-.41,1-.84,2c-.28.67-.58,1.33-.87,2"/><path class="cls-5" d="M462.12,151.16c-.34.77-.7,1.53-1.06,2.29s-.74,1.51-1.12,2.25"/><path class="cls-5" d="M457.59,154.05c-.38.65-.78,1.28-1.18,1.92s-.81,1.26-1.22,1.88"/><path class="cls-6" d="M471.42,167.05c-.43.58-.88,1.15-1.33,1.72s-.91,1.14-1.37,1.7"/><path class="cls-6" d="M464.55,167.9l-1.22,1.81-1.26,1.78"/><path class="cls-6" d="M465.71,174.59c-.44.55-.89,1.09-1.34,1.63l-1.38,1.6"/><path class="cls-6" d="M452.53,171.3l-1.11,1.1-1.14,1.08"/><path class="cls-6" d="M457.05,180.17l-1.35,1.35c-.45.45-.91.89-1.37,1.32"/><path class="cls-6" d="M448.68,178.76c-.43.47-.86.94-1.3,1.4l-1.31,1.38"/><path class="cls-6" d="M449.91,185.35q-.77.81-1.56,1.62c-.52.53-1.05,1.06-1.59,1.58"/><path class="cls-6" d="M437.28,179.54,436,180.59l-1.27,1"/><path class="cls-6" d="M444.78,193.83l-1.5,1.29-1.52,1.26"/><path class="cls-6" d="M433.37,187.07c-.5.34-1,.69-1.52,1s-1,.68-1.55,1"/><path class="cls-6" d="M428.45,188.08l-1.08.82c-.37.28-.73.55-1.1.81"/><path class="cls-6" d="M430.37,197.16c-.57.38-1.14.74-1.72,1.11s-1.16.71-1.74,1.06"/><path class="cls-6" d="M426.62,200.65l-1.31.73-1.31.71"/><path class="cls-6" d="M423.56,203.41l-1.75.92-1.77.88"/><path class="cls-6" d="M417.8,201.37l-1.78.84c-.6.28-1.2.55-1.81.81"/><path class="cls-6" d="M418,212.35l-1.93.85c-.65.28-1.3.56-1.95.82"/><path class="cls-6" d="M410.15,205l-1.91.7-1.94.67"/><path class="cls-6" d="M406.49,208.61l-1.76.52-1.77.49"/><path class="cls-6" d="M403.1,213.52l-1.46.33-1.46.32"/><path class="cls-6" d="M397.71,209.17c-.56.11-1.11.23-1.67.33l-1.68.31"/><path class="cls-6" d="M394.51,212.82l-2.13.46-2.14.41"/><path class="cls-6" d="M386,217.75l-1.89.26-1.89.22"/><path class="cls-6" d="M390.24,215.36l-1.89.26-1.89.23"/><path class="cls-6" d="M381.17,216.75c-.56.06-1.13.12-1.7.16l-1.69.14"/><path class="cls-6" d="M376.91,219.55H375l-1.91,0"/><path class="cls-6" d="M372.37,221.35l-2,0-2,0"/><path class="cls-6" d="M367.79,223l-2,0-2-.09"/><path class="cls-6" d="M362.8,221.89l-1.9-.14-1.9-.18"/><path class="cls-6" d="M359,215.18l-2-.24-2-.28"/><path class="cls-6" d="M355.24,212l-1.94-.37-1.93-.41"/><path class="cls-6" d="M351.17,209.23l-1.74-.31-1.74-.34"/><path class="cls-6" d="M346.81,208.53l-1.53-.59-1.51-.61"/><path class="cls-6" d="M342.26,210l-1.69-.72c-.57-.25-1.13-.49-1.68-.75"/><path class="cls-6" d="M337.51,210.5l-1.66-.78-1.65-.81"/><path class="cls-6" d="M335.35,203.69l-1.82-.94c-.6-.32-1.2-.64-1.79-1"/><path class="cls-6" d="M329.82,207.5l-2-1.14-2-1.19"/><path class="cls-6" d="M322.43,210.82c-.6-.37-1.19-.75-1.78-1.13l-1.77-1.16"/><path class="cls-6" d="M319.77,205.5l-1.29-.9-1.27-.91"/><path class="cls-6" d="M319.5,198.17,317.86,197l-1.62-1.25"/><path class="cls-6" d="M316,195.17l-1.32-1.08-1.3-1.09"/><path class="cls-6" d="M312.74,192.49c-.45-.38-.89-.77-1.33-1.16l-1.32-1.18"/><path class="cls-6" d="M305.87,194.41l-1.5-1.4c-.49-.47-1-.94-1.46-1.42"/><path class="cls-6" d="M304.12,189.56l-1.24-1.26L301.65,187"/><path class="cls-6" d="M305.89,181.13,304.84,180l-1-1.17"/><path class="cls-6" d="M299.27,182.22l-1.2-1.39-1.17-1.42"/><path class="cls-6" d="M295.52,180c-.43-.53-.85-1.06-1.27-1.6L293,176.74"/><path class="cls-6" d="M292.78,176.74c-.39-.53-.78-1.06-1.16-1.6s-.77-1.07-1.14-1.61"/><path class="cls-6" d="M286.38,175.79c-.37-.54-.74-1.09-1.1-1.64s-.72-1.1-1.07-1.66"/><path class="cls-6" d="M292,166.54c-.3-.49-.6-1-.89-1.46s-.58-1-.87-1.46"/><path class="cls-6" d="M285.29,166c-.32-.55-.63-1.1-.94-1.66s-.61-1.11-.91-1.67"/><path class="cls-7" d="M278.33,165.34c-.35-.66-.7-1.32-1-2s-.67-1.34-1-2"/><path class="cls-7" d="M279.8,158.85c-.27-.56-.52-1.11-.77-1.67s-.5-1.12-.74-1.69"/><path class="cls-7" d="M267.51,159.9c-.27-.63-.53-1.26-.79-1.89s-.51-1.26-.75-1.9"/><path class="cls-7" d="M272,152.94c-.24-.62-.46-1.23-.69-1.85s-.44-1.25-.65-1.87"/><path class="cls-7" d="M268.73,149.39l-.63-1.94c-.2-.65-.4-1.3-.59-2"/><path class="cls-7" d="M258.48,147.77c-.19-.65-.37-1.31-.55-2s-.35-1.32-.51-2"/><path class="cls-7" d="M280.06,136.64c-.13-.56-.26-1.11-.38-1.66s-.25-1.11-.36-1.67"/><path class="cls-7" d="M258,137.52l-.39-1.94c-.12-.65-.23-1.3-.35-1.94"/><path class="cls-7" d="M261.93,131.49c-.09-.56-.17-1.12-.26-1.69s-.16-1.12-.23-1.68"/><path class="cls-7" d="M257.22,128.44c-.11-.81-.21-1.62-.31-2.44s-.17-1.62-.24-2.44"/><path class="cls-7" d="M262.17,122.61c-.06-.72-.11-1.45-.16-2.17s-.09-1.45-.12-2.18"/><path class="cls-7" d="M262.64,117.83c0-.62,0-1.23-.05-1.84s0-1.23,0-1.84"/><path class="cls-7" d="M259.05,113.45c0-.68,0-1.36,0-2s0-1.36.06-2"/><path class="cls-7" d="M268.72,108.47c0-.56,0-1.13.09-1.7s.07-1.13.11-1.7"/><path class="cls-7" d="M268.09,104.47c.05-.64.11-1.27.17-1.9s.12-1.27.19-1.9"/><path class="cls-7" d="M263,99.78q.12-1.08.27-2.16t.3-2.16"/><path class="cls-7" d="M262.78,95.08c.1-.68.22-1.35.34-2s.24-1.34.37-2"/><path class="cls-7" d="M253.64,89.05c.16-.85.34-1.7.52-2.54s.38-1.68.59-2.52"/><path class="cls-7" d="M254.75,83.16c.15-.57.3-1.14.46-1.71s.32-1.14.48-1.7"/><path class="cls-7" d="M270,82.05c.14-.48.29-1,.44-1.44l.46-1.42"/><path class="cls-7" d="M263.73,76.07c.23-.69.46-1.38.7-2.07s.49-1.37.74-2"/><path class="cls-7" d="M275.81,75.5c.23-.6.46-1.19.7-1.78s.47-1.18.72-1.77"/><path class="cls-7" d="M260.89,64.33c.24-.59.5-1.17.76-1.75s.52-1.16.79-1.73"/><path class="cls-7" d="M273.42,64.63c.26-.55.53-1.1.8-1.65s.54-1.1.82-1.65"/><path class="cls-7" d="M272.1,59.44c.34-.67.69-1.33,1-2s.72-1.32,1.09-2"/><path class="cls-7" d="M270.94,52.91c.36-.63.73-1.25,1.1-1.88s.75-1.24,1.14-1.86"/><path class="cls-7" d="M280.7,53.45l1-1.6,1.06-1.58"/><path class="cls-7" d="M283.68,50.27c.39-.56.78-1.12,1.18-1.67s.8-1.1,1.2-1.65"/><path class="cls-7" d="M284.35,44.92c.38-.51.77-1,1.16-1.51s.79-1,1.19-1.5"/><path class="cls-7" d="M281.85,36.88l1.31-1.57,1.33-1.55"/><path class="cls-7" d="M284.08,32.18l1.28-1.41c.43-.47.86-.93,1.3-1.39"/><path class="cls-7" d="M284.08,26.1c.59-.63,1.19-1.24,1.8-1.86s1.22-1.21,1.85-1.81"/><path class="cls-7" d="M296.37,31.13c.46-.44.93-.87,1.4-1.3l1.42-1.27"/><path class="cls-7" d="M300.56,28.88,302,27.65c.49-.41,1-.82,1.48-1.22"/><path class="cls-7" d="M305.15,27.2l1.39-1.1c.47-.36.93-.72,1.41-1.07"/><path class="cls-7" d="M300.56,13.88l1.65-1.21c.55-.4,1.11-.79,1.67-1.18"/><path class="cls-7" d="M310.69,20.75q.94-.66,1.92-1.29t1.95-1.26"/><path class="cls-7" d="M314.41,17.34l1.8-1.09c.61-.36,1.22-.72,1.83-1.06"/><path class="cls-7" d="M320,18.2l1.79-1c.6-.33,1.2-.64,1.8-1"/><path class="cls-7" d="M320.43,9.14c.62-.32,1.25-.64,1.89-.94l1.9-.91"/><path class="cls-7" d="M325.41,8.51c.64-.3,1.29-.58,1.93-.86l2-.83"/><path class="cls-7" d="M329.29,5.11c.65-.27,1.3-.53,2-.78s1.32-.5,2-.74"/><path class="cls-7" d="M336.89,12.39l1.74-.6,1.75-.57"/><path class="cls-7" d="M338.29,2.75c.69-.22,1.38-.44,2.08-.64s1.39-.41,2.1-.6"/><path class="cls-7" d="M342.85,2.4,345,1.83l2.18-.52"/><path class="cls-7" d="M347.83,1.16l2-.42,2-.39"/><path class="cls-7" d="M353.2,3.64l1.68-.28,1.69-.26"/><path class="cls-7" d="M357.23,1.26c.67-.1,1.35-.19,2-.27s1.35-.16,2-.23"/><path class="cls-7" d="M361.87,3.37c.76-.08,1.53-.16,2.3-.22S365.71,3,366.48,3"/><path class="cls-7" d="M366.48,5.68q1-.06,2-.09l2.05,0"/></g></g></svg>