<svg xmlns="http://www.w3.org/2000/svg" viewBox="0 0 719.39 257.96"><defs><style>.cls-1{opacity:0.4;}.cls-11,.cls-2{fill:#41ab5d;}.cls-12,.cls-3{fill:#807dba;}.cls-10,.cls-4{fill:#fb6a4a;}.cls-5,.cls-6,.cls-7{fill:none;stroke-linecap:round;stroke-linejoin:round;stroke-width:0.7px;}.cls-5{stroke:#2aa640;}.cls-6{stroke:#8057d0;}.cls-7{stroke:#ff5337;}.cls-8{font-size:17px;}.cls-8,.cls-9{fill:#062246;font-family:Quicksand-Regular, Quicksand;}.cls-9{font-size:13px;}.cls-10,.cls-11,.cls-12{opacity:0.7;}</style></defs><title>Asset 5</title><g id="Layer_2" data-name="Layer 2"><g id="Layer_1-2" data-name="Layer 1"><g class="cls-1"><path class="cls-2" d="M119.17,145l.11-52.83,1,0L119.17,145Z"/><path class="cls-2" d="M119.17,145l2.32-52.77,1,0L119.17,145Z"/><path class="cls-2" d="M119.17,145l4.35-50.54,1,.09L119.17,145Z"/><path class="cls-2" d="M119.17,145l7-54.4,1,.14-8,54.26Z"/><path class="cls-2" d="M119.17,145l8.92-52.07,1,.18L119.17,145Z"/><path class="cls-2" d="M119.17,145l12.32-57.37,1.08.24L119.17,145Z"/><path class="cls-2" d="M119.17,145l13.25-51.14,1,.26L119.17,145Z"/><path class="cls-2" d="M119.17,145l16-52.47,1,.31-17,52.16Z"/><path class="cls-2" d="M119.17,145l17.48-49.85.94.34L119.17,145Z"/><path class="cls-2" d="M119.17,145l20.3-50.95,1,.39L119.17,145Z"/><path class="cls-2" d="M119.17,145l22.41-50.06.94.43L119.17,145Z"/><path class="cls-2" d="M119.17,145l25.36-50.82c.32.16.64.32.95.49L119.17,145Z"/><path class="cls-2" d="M119.17,145l25.55-46.24.87.49L119.17,145Z"/><path class="cls-2" d="M119.17,145l24-39.5.74.46-24.78,39Z"/><path class="cls-2" d="M119.17,145l27-40.37.75.52L119.17,145Z"/><path class="cls-2" d="M119.17,145l32.33-44.3.83.61L119.17,145Z"/><path class="cls-2" d="M119.17,145l31.59-39.69.75.61L119.17,145Z"/><path class="cls-2" d="M119.17,145l34.6-39.92.75.66L119.17,145Z"/><path class="cls-2" d="M119.17,145l40.26-42.69.8.77L119.17,145Z"/><path class="cls-2" d="M119.17,145l39.27-38.29c.24.25.48.49.71.75l-40,37.54Z"/><path class="cls-2" d="M119.17,145l43.69-39.17c.25.27.49.55.73.83L119.17,145Z"/><path class="cls-2" d="M119.17,145l42.34-34.87.64.8-43,34.07Z"/><path class="cls-2" d="M119.17,145l35-26.42.5.66L119.17,145Z"/><path class="cls-2" d="M119.17,145l48.26-33.39.62.92L119.17,145Z"/><path class="cls-2" d="M119.17,145l52.65-33.26.62,1L119.17,145Z"/><path class="cls-2" d="M119.17,145l49.25-28.29c.18.31.35.62.52.93L119.17,145Z"/><path class="cls-2" d="M119.17,145l50.39-26.21c.16.32.33.64.48,1L119.17,145Z"/><path class="cls-2" d="M119.17,145l49.68-23.25.43.94L119.17,145Z"/><path class="cls-2" d="M119.17,145l48.74-20.37.38.92L119.17,145Z"/><path class="cls-2" d="M119.17,145l53.28-19.68.36,1L119.17,145Z"/><path class="cls-2" d="M119.17,145l54.05-17.44c.11.34.22.68.32,1L119.17,145Z"/><path class="cls-2" d="M119.17,145,172,130.36l.27,1L119.17,145Z"/><path class="cls-2" d="M119.17,145l53.43-12.41c.07.33.15.67.22,1L119.17,145Z"/><path class="cls-2" d="M119.17,145l51.91-9.79.18,1L119.17,145Z"/><path class="cls-2" d="M119.17,145l54.28-7.9c.05.34.09.69.14,1L119.17,145Z"/><path class="cls-2" d="M119.17,145l48.28-5,.09.91L119.17,145Z"/><path class="cls-2" d="M119.17,145l50.63-3.08c0,.32,0,.64,0,1L119.17,145Z"/><path class="cls-2" d="M119.17,145,174,144c0,.34,0,.69,0,1Z"/><path class="cls-2" d="M119.17,145l50.71,1.17q0,.48,0,1L119.17,145Z"/><path class="cls-2" d="M119.17,145l54.73,3.56c0,.34,0,.69-.07,1L119.17,145Z"/><path class="cls-2" d="M119.17,145l50.44,5.41c0,.32-.07.63-.11,1L119.17,145Z"/><path class="cls-2" d="M119.17,145l50.17,7.52-.15.94-50-8.46Z"/><path class="cls-2" d="M119.17,145,169,154.61c-.06.31-.12.63-.19.94L119.17,145Z"/><path class="cls-2" d="M119.17,145l55.27,13.09c-.08.34-.17.69-.26,1l-55-14.13Z"/><path class="cls-2" d="M119.17,145l60,16.87-.33,1.13-59.62-18Z"/><path class="cls-2" d="M119.17,145l50.21,16.43c-.1.32-.21.63-.32.94L119.17,145Z"/><path class="cls-2" d="M119.17,145l53.19,19.91c-.12.33-.25.67-.38,1L119.17,145Z"/><path class="cls-2" d="M119.17,145l48.66,20.57c-.13.31-.26.61-.4.92L119.17,145Z"/><path class="cls-2" d="M119.17,145l49.58,23.46-.45.93L119.17,145Z"/><path class="cls-2" d="M119.17,145l46.77,24.57-.48.88L119.17,145Z"/><path class="cls-3" d="M119.17,145l86.36,50.1c-.31.55-.63,1.09-.95,1.62L119.17,145Z"/><path class="cls-3" d="M119.17,145l82.33,52.49-1,1.55-81.33-54Z"/><path class="cls-3" d="M119.17,145l83.64,58.39c-.37.52-.74,1.05-1.12,1.57l-82.52-60Z"/><path class="cls-3" d="M119.17,145l73.09,55.72-1.06,1.37-72-57.09Z"/><path class="cls-3" d="M119.17,145l76,63.11c-.4.47-.8.95-1.21,1.42L119.17,145Z"/><path class="cls-3" d="M119.17,145l72.43,65.49-1.25,1.35L119.17,145Z"/><path class="cls-3" d="M119.17,145l71.19,70L189,216.34,119.17,145Z"/><path class="cls-3" d="M119.17,145,176,205.78l-1.15,1.06L119.17,145Z"/><path class="cls-3" d="M119.17,145l64.37,74.89-1.42,1.2L119.17,145Z"/><path class="cls-3" d="M119.17,145l56.2,71.21-1.35,1L119.17,145Z"/><path class="cls-3" d="M119.17,145l50.28,69.51-1.32.93-49-70.44Z"/><path class="cls-3" d="M119.17,145l52,78.61-1.49,1L119.17,145Z"/><path class="cls-3" d="M119.17,145l47.45,78.71-1.5.88L119.17,145Z"/><path class="cls-3" d="M119.17,145l47.92,87.6-1.66.88L119.17,145Z"/><path class="cls-3" d="M119.17,145l38.54,78.05-1.48.71L119.17,145Z"/><path class="cls-3" d="M119.17,145l39.08,88.26-1.67.72-37.41-89Z"/><path class="cls-3" d="M119.17,145l35.76,90.86-1.72.66-34-91.52Z"/><path class="cls-3" d="M119.17,145l30.43,88-1.67.55L119.17,145Z"/><path class="cls-3" d="M119.17,145l28,93.53-1.77.52L119.17,145Z"/><path class="cls-3" d="M119.17,145l22.38,87.91-1.66.41L119.17,145Z"/><path class="cls-3" d="M119.17,145,140,243.77l-1.87.37L119.17,145Z"/><path class="cls-3" d="M119.17,145l15.14,90.65-1.71.27L119.17,145Z"/><path class="cls-3" d="M119.17,145l12.57,101.22c-.63.08-1.27.16-1.91.22L119.17,145Z"/><path class="cls-3" d="M119.17,145l8.15,99.51-1.88.14L119.17,145Z"/><path class="cls-3" d="M119.17,145l3.8,95.31q-.9,0-1.8.06l-2-95.37Z"/><path class="cls-3" d="M119.17,145l-.2,96.52-1.82,0,2-96.5Z"/><path class="cls-3" d="M119.17,145l-4.44,100.83-1.9-.1L119.17,145Z"/><path class="cls-3" d="M119.17,145l-8.84,102.68-1.93-.18L119.17,145Z"/><path class="cls-3" d="M119.17,145l-12.44,96.85-1.82-.25L119.17,145Z"/><path class="cls-3" d="M119.17,145l-14.48,84.55c-.53-.09-1.06-.18-1.59-.29L119.17,145Z"/><path class="cls-3" d="M119.17,145l-18.79,87.51-1.65-.37L119.17,145Z"/><path class="cls-3" d="M119.17,145,97,230.46,95.43,230l23.74-85Z"/><path class="cls-3" d="M119.17,145l-26.4,86.79-1.63-.52,28-86.27Z"/><path class="cls-3" d="M119.17,145,84.73,243.25l-1.85-.67L119.17,145Z"/><path class="cls-3" d="M119.17,145,83,235.71l-1.71-.7,37.84-90Z"/><path class="cls-3" d="M119.17,145l-39.9,89.12-1.67-.77L119.17,145Z"/><path class="cls-3" d="M119.17,145,74.59,234.34l-1.68-.86L119.17,145Z"/><path class="cls-3" d="M119.17,145,72.5,229.49l-1.59-.9L119.17,145Z"/><path class="cls-3" d="M119.17,145,70.79,224.52l-1.49-.93L119.17,145Z"/><path class="cls-3" d="M119.17,145l-51,76.44-1.43-1L119.17,145Z"/><path class="cls-3" d="M119.17,145l-56.9,78-1.45-1.09L119.17,145Z"/><path class="cls-3" d="M119.17,145l-61.5,77.26-1.44-1.17L119.17,145Z"/><path class="cls-3" d="M119.17,145,59,214.45l-1.29-1.15L119.17,145Z"/><path class="cls-3" d="M119.17,145,62.08,205.54,61,204.45,119.17,145Z"/><path class="cls-3" d="M119.17,145,51.7,210.8l-1.23-1.29L119.17,145Z"/><path class="cls-3" d="M119.17,145,49,207.91c-.4-.44-.79-.88-1.18-1.33L119.17,145Z"/><path class="cls-3" d="M119.17,145,46.43,204.92c-.37-.46-.75-.92-1.11-1.38L119.17,145Z"/><path class="cls-3" d="M119.17,145l-76.1,57.51c-.36-.47-.72-1-1.07-1.44L119.17,145Z"/><path class="cls-3" d="M119.17,145,54.05,190.06l-.84-1.24,66-43.82Z"/><path class="cls-3" d="M119.17,145,40.48,194.71l-.93-1.49L119.17,145Z"/><path class="cls-4" d="M119.17,145,21.09,201.36q-.54-.93-1.05-1.86L119.17,145Z"/><path class="cls-4" d="M119.17,145,26.81,193c-.3-.58-.6-1.16-.89-1.75L119.17,145Z"/><path class="cls-4" d="M119.17,145,17.59,192.54c-.3-.64-.59-1.28-.88-1.92L119.17,145Z"/><path class="cls-4" d="M119.17,145,18.41,187.11c-.27-.63-.53-1.27-.78-1.91L119.17,145Z"/><path class="cls-4" d="M119.17,145,14.88,183.54c-.24-.66-.48-1.31-.71-2l105-36.57Z"/><path class="cls-4" d="M119.17,145l-113,36.46c-.23-.71-.46-1.42-.67-2.14L119.17,145Z"/><path class="cls-4" d="M119.17,145l-94.1,26.06c-.16-.59-.32-1.18-.47-1.78L119.17,145Z"/><path class="cls-4" d="M119.17,145l-113,26.25c-.17-.71-.32-1.42-.48-2.14L119.17,145Z"/><path class="cls-4" d="M119.17,145,9.91,165.61c-.12-.69-.25-1.38-.36-2.07L119.17,145Z"/><path class="cls-4" d="M119.17,145,6.28,161.43c-.1-.71-.2-1.42-.29-2.13L119.17,145Z"/><path class="cls-4" d="M119.17,145,15.61,155.67c-.07-.65-.13-1.31-.18-2L119.17,145Z"/><path class="cls-4" d="M119.17,145l-106,6.45c0-.67-.08-1.34-.1-2L119.17,145Z"/><path class="cls-4" d="M119.17,145,11,147c0-.68,0-1.36,0-2Z"/><path class="cls-4" d="M119.17,145l-103-2.37c0-.65,0-1.3.06-1.94l103,4.31Z"/><path class="cls-4" d="M119.17,145,15.28,138.25c0-.66.09-1.31.15-2L119.17,145Z"/><path class="cls-4" d="M119.17,145,13.6,133.68c.07-.66.15-1.32.23-2L119.17,145Z"/><path class="cls-4" d="M119.17,145l-107-16c.1-.67.21-1.34.32-2l106.69,18Z"/><path class="cls-4" d="M119.17,145,1.67,122.33l.45-2.21L119.17,145Z"/><path class="cls-4" d="M119.17,145,1,117c.18-.75.36-1.49.55-2.23L119.17,145Z"/><path class="cls-4" d="M119.17,145,20,117.08c.17-.63.35-1.25.54-1.87L119.17,145Z"/><path class="cls-4" d="M119.17,145,14.44,110.73c.21-.66.43-1.32.66-2L119.17,145Z"/><path class="cls-4" d="M119.17,145,23.64,109.25l.69-1.8L119.17,145Z"/><path class="cls-4" d="M119.17,145,9,98.4c.29-.69.59-1.38.89-2.07L119.17,145Z"/><path class="cls-4" d="M119.17,145,27,101.38c.27-.58.55-1.16.84-1.73L119.17,145Z"/><path class="cls-4" d="M119.17,145,21.62,93.74c.32-.61.65-1.22,1-1.83L119.17,145Z"/><path class="cls-4" d="M119.17,145,21.32,88.23c.36-.61.72-1.22,1.09-1.83L119.17,145Z"/><path class="cls-4" d="M119.17,145,34.07,90.74c.34-.53.69-1.06,1-1.59L119.17,145Z"/><path class="cls-4" d="M119.17,145,35.54,86.61c.36-.52.74-1,1.11-1.56l82.52,60Z"/><path class="cls-4" d="M119.17,145,32.32,78.79c.42-.54.84-1.09,1.27-1.62L119.17,145Z"/><path class="cls-4" d="M119.17,145,33.65,74c.45-.54.9-1.07,1.36-1.6L119.17,145Z"/><path class="cls-4" d="M119.17,145,34.55,68.49c.48-.53,1-1.06,1.46-1.58L119.17,145Z"/><path class="cls-4" d="M119.17,145,35.82,63c.51-.52,1-1,1.56-1.55L119.17,145Z"/><path class="cls-4" d="M119.17,145,44.58,65.23l1.52-1.39L119.17,145Z"/><path class="cls-4" d="M119.17,145,51.31,66.05l1.5-1.27L119.17,145Z"/><path class="cls-4" d="M119.17,145,51.52,59.27,53.14,58l66,87Z"/><path class="cls-4" d="M119.17,145,52.31,52.57l1.75-1.25L119.17,145Z"/><path class="cls-4" d="M119.17,145,58.93,53.91l1.72-1.12L119.17,145Z"/><path class="cls-4" d="M119.17,145,63.31,52.33l1.76-1L119.17,145Z"/><path class="cls-4" d="M119.17,145,70.73,56.46q.84-.47,1.68-.9L119.17,145Z"/><path class="cls-4" d="M119.17,145,71.71,48.88,73.53,48l45.64,97Z"/><path class="cls-4" d="M119.17,145,75,45.14l1.89-.81L119.17,145Z"/><path class="cls-4" d="M119.17,145,81.05,48.12l1.83-.7L119.17,145Z"/><path class="cls-4" d="M119.17,145l-34-98.39L87,46l32.17,99Z"/><path class="cls-4" d="M119.17,145,87,37.56,89,37l30.16,108Z"/><path class="cls-4" d="M119.17,145,92,38.21c.67-.18,1.34-.34,2-.5L119.17,145Z"/><path class="cls-4" d="M119.17,145,97.53,42.1l1.94-.39L119.17,145Z"/><path class="cls-4" d="M119.17,145l-17-101.65,1.92-.3,15,102Z"/><path class="cls-4" d="M119.17,145l-13-104.35,2-.22,11,104.57Z"/><path class="cls-4" d="M119.17,145,110.43,38.16l2-.15,6.73,107Z"/><path class="cls-4" d="M119.17,145,115,41l2-.06L119.17,145Z"/></g><path class="cls-5" d="M119.4,92.17h.73"/><path class="cls-5" d="M121.64,92.21l.73,0"/><path class="cls-5" d="M123.63,94.43l.73.06"/><path class="cls-5" d="M126.27,90.6l.73.09"/><path class="cls-5" d="M128.22,92.93l.72.13"/><path class="cls-5" d="M131.29,87.63l1.43.31"/><path class="cls-5" d="M132.38,93.86l1.06.28"/><path class="cls-5" d="M135.3,92.53l.7.21"/><path class="cls-5" d="M136.8,95.19l.69.25"/><path class="cls-5" d="M139.78,94.18l.34.14"/><path class="cls-5" d="M141.75,95l.67.3"/><path class="cls-5" d="M144.65,94.25l.65.32"/><path class="cls-5" d="M145,98.93l.32.18"/><path class="cls-5" d="M143.47,105.64l.31.19"/><path class="cls-5" d="M146.21,104.71l.61.41"/><path class="cls-5" d="M151.16,100.59l1.18.87"/><path class="cls-5" d="M150.6,105.12l1.15.91"/><path class="cls-5" d="M153.69,105.14l.83.72"/><path class="cls-5" d="M159.43,102.34l.8.75"/><path class="cls-5" d="M158.39,106.67c.25.26.51.52.76.79"/><path class="cls-5" d="M163,105.9c.16.18.32.37.49.55"/><path class="cls-5" d="M161.38,110l.93,1.13"/><path class="cls-5" d="M154.19,118.58l.44.58"/><path class="cls-5" d="M167.22,111.22l1,1.5"/><path class="cls-5" d="M172,111.86l.39.62"/><path class="cls-5" d="M168.5,116.85c.13.21.25.42.37.63"/><path class="cls-5" d="M169.43,118.61l.68,1.3"/><path class="cls-5" d="M168.94,121.92c.11.22.21.44.31.66"/><path class="cls-5" d="M167.91,124.74c.09.23.18.45.28.68"/><path class="cls-5" d="M172.48,125.42c.08.22.17.45.25.68"/><path class="cls-5" d="M173.27,127.73c.08.24.15.47.23.7"/><path class="cls-5" d="M172,130.15q.21.71.39,1.41"/><path class="cls-5" d="M172.66,132.91l.09.36"/><path class="cls-5" d="M171.12,135.33c0,.24.09.48.14.72"/><path class="cls-5" d="M173.52,137.44c0,.12,0,.24,0,.36"/><path class="cls-5" d="M167.5,140.11c0,.24.05.48.07.72"/><path class="cls-5" d="M169.81,142.05c0,.24,0,.49,0,.73"/><path class="cls-5" d="M174,144.3v.37"/><path class="cls-5" d="M169.89,146.29c0,.24,0,.48,0,.73"/><path class="cls-5" d="M173.93,148.73c0,.24,0,.49-.05.73"/><path class="cls-5" d="M169.61,150.33l-.12,1.09"/><path class="cls-5" d="M169.29,152.38c0,.36-.11.72-.16,1.08"/><path class="cls-5" d="M169.05,154.74c-.05.24-.09.48-.14.71"/><path class="cls-5" d="M174.56,157.47c-.16.71-.33,1.42-.5,2.13"/><path class="cls-5" d="M179.12,161.74c-.13.47-.26.94-.4,1.4"/><path class="cls-5" d="M169.38,161.33c-.11.35-.23.7-.34,1"/><path class="cls-5" d="M172.31,165.11c-.08.22-.17.45-.26.68"/><path class="cls-5" d="M167.73,165.72l-.28.67"/><path class="cls-5" d="M168.65,168.59l-.31.67"/><path class="cls-5" d="M165.94,169.68l-.34.65"/><path class="cls-6" d="M206.33,193.63c-.83,1.5-1.68,3-2.57,4.43"/><path class="cls-6" d="M202.46,195.85c-1,1.56-1.93,3.11-3,4.62"/><path class="cls-6" d="M203.76,202.07q-1.51,2.3-3.14,4.5"/><path class="cls-6" d="M193.15,199.51q-1.4,1.94-2.88,3.79"/><path class="cls-6" d="M196.29,206.63q-1.69,2.15-3.5,4.22"/><path class="cls-6" d="M192.49,209.53c-1,1.19-2.1,2.37-3.18,3.52"/><path class="cls-6" d="M191.6,213.62q-2,2.15-4.11,4.17"/><path class="cls-6" d="M176.7,205.28c-.87.85-1.76,1.68-2.67,2.5"/><path class="cls-6" d="M184.48,218.84c-1.18,1.06-2.39,2.09-3.61,3.1"/><path class="cls-6" d="M176.69,215.16q-2,1.62-4,3.17"/><path class="cls-6" d="M170.22,214.08c-1,.73-2,1.45-3,2.15"/><path class="cls-6" d="M172.67,222.59q-2.25,1.57-4.57,3"/><path class="cls-6" d="M167.51,223.16c-1,.65-2.08,1.28-3.13,1.89"/><path class="cls-6" d="M168.54,232q-2.22,1.28-4.5,2.46"/><path class="cls-6" d="M159.4,222.47q-2.11,1.09-4.26,2.1"/><path class="cls-6" d="M159.61,232.7q-2.33,1.1-4.68,2.07"/><path class="cls-6" d="M156.75,235q-2.52,1.07-5.1,2"/><path class="cls-6" d="M150.5,232.61c-1.14.41-2.29.81-3.45,1.19"/><path class="cls-6" d="M149,237.94c-1.74.56-3.49,1.09-5.25,1.57"/><path class="cls-6" d="M142.61,232.49q-2,.54-3.9,1"/><path class="cls-6" d="M142.19,243.27c-2.14.51-4.28,1-6.44,1.35"/><path class="cls-6" d="M135.7,235.38c-1.56.29-3.12.55-4.69.78"/><path class="cls-6" d="M133.45,246.1q-2.72.41-5.45.68"/><path class="cls-6" d="M128.51,244.47c-1.46.15-2.91.27-4.37.36"/><path class="cls-6" d="M124.44,240.27c-1.58.1-3.17.16-4.75.19"/><path class="cls-6" d="M120.71,241.45c-1.71,0-3.42,0-5.12,0"/><path class="cls-6" d="M116.34,245.94c-1.7,0-3.41-.11-5.11-.22"/><path class="cls-6" d="M112.51,248q-3.11-.18-6.2-.53"/><path class="cls-6" d="M108.54,241.87q-2.73-.28-5.44-.7"/><path class="cls-6" d="M105.51,229.79c-1.2-.18-2.41-.39-3.6-.61"/><path class="cls-6" d="M101.44,232.85c-1.32-.26-2.63-.54-3.94-.85"/><path class="cls-6" d="M98.12,230.92c-1.19-.28-2.37-.59-3.55-.92"/><path class="cls-6" d="M94.05,232.16c-1.41-.4-2.81-.83-4.2-1.28"/><path class="cls-6" d="M86.44,243.77c-1.86-.6-3.7-1.24-5.52-1.94"/><path class="cls-6" d="M84.73,236.37c-1.72-.63-3.41-1.31-5.1-2"/><path class="cls-6" d="M81.07,234.82q-2.7-1.12-5.34-2.39"/><path class="cls-6" d="M76.28,235.13c-1.66-.78-3.29-1.59-4.91-2.45"/><path class="cls-6" d="M73.73,230.07c-1.41-.74-2.79-1.51-4.16-2.3"/><path class="cls-6" d="M72.08,225.32c-1.37-.79-2.72-1.62-4.06-2.47"/><path class="cls-6" d="M69.3,222.26q-2-1.27-4-2.64"/><path class="cls-6" d="M63.28,223.73c-1.2-.84-2.39-1.7-3.55-2.59"/><path class="cls-6" d="M58.88,223.19q-2-1.55-4-3.19"/><path class="cls-6" d="M60,215.3c-1.12-.94-2.23-1.9-3.31-2.88"/><path class="cls-6" d="M62.83,206.17c-.9-.82-1.78-1.65-2.66-2.5"/><path class="cls-6" d="M52.82,211.89q-1.7-1.66-3.32-3.4"/><path class="cls-6" d="M49.87,208.85c-1-1.07-2-2.15-2.93-3.26"/><path class="cls-6" d="M47.44,206.18c-1-1.2-2-2.42-3-3.67"/><path class="cls-6" d="M44,203.76c-1-1.25-1.94-2.51-2.86-3.8"/><path class="cls-6" d="M54.7,191.12c-.79-1.09-1.55-2.19-2.29-3.31"/><path class="cls-6" d="M41.44,196c-.88-1.32-1.72-2.66-2.54-4"/><path class="cls-7" d="M23.05,204.37q-2.44-3.87-4.56-7.93"/><path class="cls-7" d="M28,195.16q-1.71-3-3.21-6.17"/><path class="cls-7" d="M18.78,194.79c-1.17-2.28-2.25-4.6-3.26-7"/><path class="cls-7" d="M19.24,189c-.91-2-1.75-4-2.54-6.07"/><path class="cls-7" d="M16,186.18q-1.53-3.72-2.79-7.55"/><path class="cls-7" d="M7.17,183.94q-1.3-3.62-2.36-7.31"/><path class="cls-7" d="M25.92,173q-.92-3-1.66-6"/><path class="cls-7" d="M6.74,173.18Q5.9,170,5.25,166.77"/><path class="cls-7" d="M10.18,167.9c-.48-2.14-.88-4.3-1.22-6.47"/><path class="cls-7" d="M6.87,164.74q-.84-4.5-1.31-9.05"/><path class="cls-7" d="M16.09,158.37c-.33-2.41-.58-4.84-.75-7.27"/><path class="cls-7" d="M13.34,153.8q-.31-3.47-.42-6.93"/><path class="cls-7" d="M11,149.86q-.19-3.84-.14-7.68"/><path class="cls-7" d="M16.23,145c0-2.44,0-4.88.17-7.31"/><path class="cls-7" d="M15.14,141.82q.12-4.4.57-8.76"/><path class="cls-7" d="M13.6,136.74c.19-2.8.49-5.58.89-8.36"/><path class="cls-7" d="M12.16,131.45q.39-3.27,1-6.51"/><path class="cls-7" d="M1.26,124.94c.42-2.65.92-5.29,1.53-7.9"/><path class="cls-7" d="M.35,120.05q.81-4.12,1.94-8.19"/><path class="cls-7" d="M19.54,118.76q.67-2.66,1.49-5.28"/><path class="cls-7" d="M13.13,114.34q1.15-4.05,2.61-8"/><path class="cls-7" d="M22.84,111.75c.78-2.31,1.63-4.6,2.56-6.85"/><path class="cls-7" d="M8,100.84c.87-2.27,1.82-4.52,2.85-6.73"/><path class="cls-7" d="M26.08,103.42q1.32-3,2.81-6"/><path class="cls-7" d="M20.15,96.56c1.11-2.3,2.3-4.57,3.57-6.79"/><path class="cls-7" d="M20.28,90.15q1.57-2.9,3.31-5.69"/><path class="cls-7" d="M32.78,92.85Q34.47,90,36.32,87.3"/><path class="cls-7" d="M34.25,88.68c1.21-1.84,2.46-3.64,3.77-5.4"/><path class="cls-7" d="M30.74,81.18Q33,78,35.39,75.07"/><path class="cls-7" d="M32.68,75.36q1.82-2.31,3.74-4.5"/><path class="cls-7" d="M33.06,70.24c1.5-1.76,3.06-3.48,4.66-5.15"/><path class="cls-7" d="M34.08,65q2.47-2.69,5.13-5.21"/><path class="cls-7" d="M42.51,67.18q2.84-2.85,5.87-5.49"/><path class="cls-7" d="M50.16,67.18c1.36-1.22,2.74-2.42,4.16-3.57"/><path class="cls-7" d="M50.3,60.29c1.32-1.09,2.66-2.14,4-3.17"/><path class="cls-7" d="M49.65,54.51q3.32-2.59,6.81-4.93"/><path class="cls-7" d="M56.2,55.87Q59.76,53.3,63.52,51"/><path class="cls-7" d="M61.28,53.45c1.84-1.19,3.72-2.33,5.63-3.4"/><path class="cls-7" d="M68.82,57.71Q71.66,56,74.6,54.55"/><path class="cls-7" d="M69.11,50.05c2.26-1.21,4.55-2.35,6.89-3.4"/><path class="cls-7" d="M72.05,46.63c2.63-1.29,5.31-2.48,8-3.55"/><path class="cls-7" d="M77.49,49.32q3.86-1.68,7.83-3.08"/><path class="cls-7" d="M82.7,47.78q3.24-1.23,6.56-2.27"/><path class="cls-7" d="M83.75,38.6q4-1.37,8.06-2.41"/><path class="cls-7" d="M88.48,39.25c2.92-.87,5.88-1.62,8.86-2.25"/><path class="cls-7" d="M94.36,42.89q4.08-1,8.23-1.73"/><path class="cls-7" d="M99.65,43.72c2.27-.45,4.56-.83,6.85-1.14"/><path class="cls-7" d="M103.58,41c2.41-.38,4.83-.69,7.26-.91"/><path class="cls-7" d="M107,38.55q4.18-.49,8.38-.68"/><path class="cls-7" d="M112.69,41.18c2.19-.16,4.38-.24,6.58-.27"/><g class="cls-1"><path class="cls-2" d="M371.72,145l.21-97.22,1.83,0-2,97.2Z"/><path class="cls-2" d="M371.72,145l4.19-95.15c.6,0,1.2.06,1.79.09l-6,95.06Z"/><path class="cls-2" d="M371.72,145l8-92.88,1.75.17L371.72,145Z"/><path class="cls-2" d="M371.72,145l11.75-91.45,1.72.24L371.72,145Z"/><path class="cls-2" d="M371.72,145,388,50.14l1.79.33-18,94.53Z"/><path class="cls-2" d="M371.72,145l21-97.88,1.84.41L371.72,145Z"/><path class="cls-2" d="M371.72,145l23.12-89.25q.84.21,1.68.45L371.72,145Z"/><path class="cls-2" d="M371.72,145l28-92.07c.58.17,1.16.36,1.73.54L371.72,145Z"/><path class="cls-2" d="M371.72,145l29.82-85,1.59.58L371.72,145Z"/><path class="cls-2" d="M371.72,145,407,56.52l1.66.68L371.72,145Z"/><path class="cls-2" d="M371.72,145l40.92-91.37,1.71.78L371.72,145Z"/><path class="cls-2" d="M371.72,145,413.8,60.68l1.58.8L371.72,145Z"/><path class="cls-2" d="M371.72,145,417.3,62.51l1.54.88L371.72,145Z"/><path class="cls-2" d="M371.72,145,418,68.93l1.43.88L371.72,145Z"/><path class="cls-2" d="M371.72,145l57.65-86.38L431,59.73,371.72,145Z"/><path class="cls-2" d="M371.72,145,432.4,61.86c.52.38,1,.76,1.55,1.16l-62.23,82Z"/><path class="cls-2" d="M371.72,145l62.35-78.33c.5.39,1,.79,1.47,1.19L371.72,145Z"/><path class="cls-2" d="M371.72,145,435.4,71.54c.47.4.92.8,1.38,1.21L371.72,145Z"/><path class="cls-2" d="M371.72,145l70.62-74.88,1.4,1.34-72,73.54Z"/><path class="cls-2" d="M371.72,145l69.61-67.88c.42.44.85.88,1.27,1.33L371.72,145Z"/><path class="cls-2" d="M371.72,145l74.54-66.83c.42.46.84.94,1.25,1.41L371.72,145Z"/><path class="cls-2" d="M371.72,145l75-61.81c.39.47.78.94,1.16,1.42L371.72,145Z"/><path class="cls-2" d="M371.72,145l73.56-55.59c.35.46.69.93,1,1.4L371.72,145Z"/><path class="cls-2" d="M371.72,145l79.95-55.32c.35.5.69,1,1,1.52l-81,53.8Z"/><path class="cls-2" d="M371.72,145,451.4,94.67c.31.5.63,1,.93,1.51L371.72,145Z"/><path class="cls-2" d="M371.72,145l83.45-47.94c.3.52.6,1,.89,1.58L371.72,145Z"/><path class="cls-2" d="M371.72,145l85.38-44.41c.28.54.56,1.08.83,1.62L371.72,145Z"/><path class="cls-2" d="M371.72,145l88.94-41.62c.26.56.52,1.12.77,1.68L371.72,145Z"/><path class="cls-2" d="M371.72,145l90.61-37.86c.23.57.47,1.14.69,1.71L371.72,145Z"/><path class="cls-2" d="M371.72,145l87.45-32.31c.2.55.4,1.1.59,1.65l-88,30.66Z"/><path class="cls-2" d="M371.72,145l89.69-28.93c.18.56.36,1.13.53,1.69L371.72,145Z"/><path class="cls-2" d="M371.72,145l96.49-26.72c.17.61.33,1.21.48,1.82l-97,24.9Z"/><path class="cls-2" d="M371.72,145l95.65-22.22c.14.6.28,1.2.4,1.8l-96,20.42Z"/><path class="cls-2" d="M371.72,145,471,126.27c.12.63.23,1.25.34,1.88L371.72,145Z"/><path class="cls-2" d="M371.72,145,466,131.28c.09.6.17,1.19.25,1.78L371.72,145Z"/><path class="cls-2" d="M371.72,145l95.74-9.86c.06.6.11,1.21.16,1.81L371.72,145Z"/><path class="cls-2" d="M371.72,145l100.88-6.13c0,.63.07,1.26.1,1.9l-101,4.23Z"/><path class="cls-2" d="M371.72,145,467,143.21c0,.59,0,1.19,0,1.79Z"/><path class="cls-2" d="M371.72,145l90.09,2.08c0,.56,0,1.13-.06,1.69l-90-3.77Z"/><path class="cls-2" d="M371.72,145l97,6.31c0,.61-.08,1.22-.14,1.83L371.72,145Z"/><path class="cls-2" d="M371.72,145l95.69,10.26q-.09.9-.21,1.8L371.72,145Z"/><path class="cls-2" d="M371.72,145l90.16,13.51-.27,1.69L371.72,145Z"/><path class="cls-2" d="M371.72,145l88.48,17.07c-.11.56-.22,1.11-.34,1.67L371.72,145Z"/><path class="cls-2" d="M371.72,145l93.65,22.17c-.14.59-.28,1.18-.43,1.76L371.72,145Z"/><path class="cls-2" d="M371.72,145l93.59,26.34-.51,1.76L371.72,145Z"/><path class="cls-2" d="M371.72,145l89.57,29.31q-.27.84-.57,1.68l-89-31Z"/><path class="cls-2" d="M371.72,145l91.06,34.08-.66,1.71L371.72,145Z"/><path class="cls-2" d="M371.72,145l84.92,35.91q-.33.79-.69,1.59L371.72,145Z"/><path class="cls-2" d="M371.72,145l89.64,42.41c-.27.56-.54,1.12-.82,1.68L371.72,145Z"/><path class="cls-2" d="M371.72,145l85.2,44.77c-.28.53-.57,1.06-.86,1.59L371.72,145Z"/><path class="cls-3" d="M371.72,145l98.89,57.37c-.37.62-.73,1.24-1.1,1.85L371.72,145Z"/><path class="cls-3" d="M371.72,145l92.09,58.71-1.12,1.73-91-60.44Z"/><path class="cls-3" d="M371.72,145l93,65c-.41.59-.82,1.17-1.24,1.74L371.72,145Z"/><path class="cls-3" d="M371.72,145l80.37,61.27c-.38.51-.77,1-1.17,1.51L371.72,145Z"/><path class="cls-3" d="M371.72,145l84.67,70.34c-.44.54-.89,1.06-1.34,1.59L371.72,145Z"/><path class="cls-3" d="M371.72,145l76.35,69c-.43.48-.87,1-1.32,1.43l-75-70.46Z"/><path class="cls-3" d="M371.72,145,449,221c-.48.49-1,1-1.45,1.44L371.72,145Z"/><path class="cls-3" d="M371.72,145l65.06,69.57-1.33,1.21L371.72,145Z"/><path class="cls-3" d="M371.72,145,444,229.13c-.53.46-1.07.91-1.6,1.35L371.72,145Z"/><path class="cls-3" d="M371.72,145l60.84,77.09-1.47,1.13L371.72,145Z"/><path class="cls-3" d="M371.72,145l56.41,78L426.65,224l-54.93-79Z"/><path class="cls-3" d="M371.72,145l57.79,87.38-1.65,1.07L371.72,145Z"/><path class="cls-3" d="M371.72,145l54.55,90.5-1.71,1L371.72,145Z"/><path class="cls-3" d="M371.72,145l51.14,93.49c-.58.32-1.17.64-1.77.95L371.72,145Z"/><path class="cls-3" d="M371.72,145l45.16,91.46-1.73.83L371.72,145Z"/><path class="cls-3" d="M371.72,145,417,247.22c-.64.29-1.29.57-1.94.84L371.72,145Z"/><path class="cls-3" d="M371.72,145l37.35,94.92-1.79.68L371.72,145Z"/><path class="cls-3" d="M371.72,145l33.95,98.15-1.86.62L371.72,145Z"/><path class="cls-3" d="M371.72,145l30.84,102.93c-.64.2-1.29.38-1.94.57L371.72,145Z"/><path class="cls-3" d="M371.72,145l25.16,98.85-1.87.46L371.72,145Z"/><path class="cls-3" d="M371.72,145l21.57,102.52-1.94.39L371.72,145Z"/><path class="cls-3" d="M371.72,145l17.55,105.11-2,.31L371.72,145Z"/><path class="cls-3" d="M371.72,145l13.36,107.51-2,.23L371.72,145Z"/><path class="cls-3" d="M371.72,145l8.7,106.21-2,.14L371.72,145Z"/><path class="cls-3" d="M371.72,145l4.35,109.12-2.06.07L371.72,145Z"/><path class="cls-3" d="M371.72,145l-.23,110.94-2.09,0L371.72,145Z"/><path class="cls-3" d="M371.72,145l-5,112.53-2.12-.11L371.72,145Z"/><path class="cls-3" d="M371.72,145l-9.59,111.38-2.09-.2L371.72,145Z"/><path class="cls-3" d="M371.72,145,358.26,249.81l-2-.28L371.72,145Z"/><path class="cls-3" d="M371.72,145,354.34,246.45l-1.9-.34L371.72,145Z"/><path class="cls-3" d="M371.72,145,350.5,243.81q-.93-.19-1.86-.42L371.72,145Z"/><path class="cls-3" d="M371.72,145l-25.34,97.84-1.84-.5L371.72,145Z"/><path class="cls-3" d="M371.72,145,341.5,244.35l-1.87-.58L371.72,145Z"/><path class="cls-3" d="M371.72,145l-35,99.72-1.87-.68,36.83-99Z"/><path class="cls-3" d="M371.72,145l-37.05,93q-.87-.34-1.74-.72L371.72,145Z"/><path class="cls-3" d="M371.72,145l-43.18,96.44-1.81-.83,45-95.61Z"/><path class="cls-3" d="M371.72,145,321.81,245c-.63-.31-1.26-.63-1.88-1L371.72,145Z"/><path class="cls-3" d="M371.72,145l-52.39,94.83-1.77-1L371.72,145Z"/><path class="cls-3" d="M371.72,145l-53,87.14c-.55-.34-1.09-.67-1.63-1L371.72,145Z"/><path class="cls-3" d="M371.72,145l-56.1,84.06L314,228l57.68-83Z"/><path class="cls-3" d="M371.72,145l-59.57,81.64-1.53-1.14,61.1-80.5Z"/><path class="cls-3" d="M371.72,145l-66.36,83.37q-.8-.62-1.56-1.26L371.72,145Z"/><path class="cls-3" d="M371.72,145l-68,78.47-1.47-1.29L371.72,145Z"/><path class="cls-3" d="M371.72,145l-66,70-1.31-1.26L371.72,145Z"/><path class="cls-3" d="M371.72,145l-73,71.21c-.45-.45-.89-.92-1.33-1.39L371.72,145Z"/><path class="cls-3" d="M371.72,145l-76.63,68.71c-.43-.48-.86-1-1.28-1.45L371.72,145Z"/><path class="cls-3" d="M371.72,145l-79.44,65.44-1.22-1.5L371.72,145Z"/><path class="cls-3" d="M371.72,145,286,209.79c-.41-.54-.81-1.08-1.21-1.63L371.72,145Z"/><path class="cls-3" d="M371.72,145l-80,55.32c-.35-.5-.69-1-1-1.52l81-53.8Z"/><path class="cls-3" d="M371.72,145l-87,55-1-1.65,88-53.32Z"/><path class="cls-4" d="M371.72,145l-93.93,54c-.34-.59-.67-1.18-1-1.78L371.72,145Z"/><path class="cls-4" d="M371.72,145l-92.13,47.92c-.3-.58-.6-1.16-.89-1.74l93-46.18Z"/><path class="cls-4" d="M371.72,145,267.43,193.81c-.31-.66-.61-1.31-.9-2L371.72,145Z"/><path class="cls-4" d="M371.72,145l-100,41.77c-.27-.63-.52-1.26-.77-1.89L371.72,145Z"/><path class="cls-4" d="M371.72,145,268.47,183.15c-.24-.64-.47-1.3-.7-2l104-36.2Z"/><path class="cls-4" d="M371.72,145,258.27,181.6c-.23-.71-.45-1.43-.67-2.14L371.72,145Z"/><path class="cls-4" d="M371.72,145l-91.79,25.42c-.16-.57-.31-1.15-.46-1.73L371.72,145Z"/><path class="cls-4" d="M371.72,145,258,171.43c-.16-.71-.32-1.43-.47-2.15L371.72,145Z"/><path class="cls-4" d="M371.72,145,261.87,165.72c-.13-.69-.26-1.38-.37-2.08L371.72,145Z"/><path class="cls-4" d="M371.72,145,257,161.7c-.1-.72-.2-1.44-.29-2.16L371.72,145Z"/><path class="cls-4" d="M371.72,145l-109.5,11.28c-.07-.69-.13-1.38-.19-2.07L371.72,145Z"/><path class="cls-4" d="M371.72,145l-109,6.63c0-.68-.07-1.37-.1-2.06L371.72,145Z"/><path class="cls-4" d="M371.72,145,259.1,147.12c0-.7,0-1.41,0-2.12Z"/><path class="cls-4" d="M371.72,145l-102.9-2.37.06-1.94L371.72,145Z"/><path class="cls-4" d="M371.72,145l-103.63-6.74q.06-1,.15-1.95L371.72,145Z"/><path class="cls-4" d="M371.72,145,263.14,133.36c.07-.68.15-1.37.23-2.05L371.72,145Z"/><path class="cls-4" d="M371.72,145,262.86,128.69c.1-.68.21-1.36.33-2L371.72,145Z"/><path class="cls-4" d="M371.72,145,253.89,122.27q.21-1.11.45-2.22l117.38,25Z"/><path class="cls-4" d="M371.72,145,255,117.35q.26-1.09.54-2.19L371.72,145Z"/><path class="cls-4" d="M371.72,145,270,116.37c.18-.64.36-1.27.56-1.91L371.72,145Z"/><path class="cls-4" d="M371.72,145,263.87,109.71c.22-.68.45-1.36.68-2L371.72,145Z"/><path class="cls-4" d="M371.72,145l-95.53-35.75c.23-.6.46-1.2.7-1.8L371.72,145Z"/><path class="cls-4" d="M371.72,145,261.19,98.27l.9-2.08L371.72,145Z"/><path class="cls-4" d="M371.72,145,273.8,98.67c.29-.62.58-1.23.89-1.84l97,48.17Z"/><path class="cls-4" d="M371.72,145l-99-52c.33-.62.66-1.24,1-1.86l98,53.86Z"/><path class="cls-4" d="M371.72,145,271.41,86.81c.37-.64.74-1.26,1.11-1.89L371.72,145Z"/><path class="cls-4" d="M371.72,145l-90.6-57.76c.36-.57.73-1.14,1.1-1.7L371.72,145Z"/><path class="cls-4" d="M371.72,145,284.35,84c.38-.55.77-1.09,1.16-1.64L371.72,145Z"/><path class="cls-4" d="M371.72,145,284.87,78.79c.42-.54.84-1.09,1.27-1.62L371.72,145Z"/><path class="cls-4" d="M371.72,145l-89.2-74.11,1.41-1.67L371.72,145Z"/><path class="cls-4" d="M371.72,145,284.49,66.13c.5-.55,1-1.09,1.51-1.63L371.72,145Z"/><path class="cls-4" d="M371.72,145,285,59.75c.53-.54,1.07-1.08,1.62-1.61L371.72,145Z"/><path class="cls-4" d="M371.72,145,297.13,65.23l1.52-1.39L371.72,145Z"/><path class="cls-4" d="M371.72,145,301.11,62.84c.51-.44,1-.88,1.56-1.31L371.72,145Z"/><path class="cls-4" d="M371.72,145l-66-83.65,1.58-1.23L371.72,145Z"/><path class="cls-4" d="M371.72,145,301.39,47.77l1.84-1.31L371.72,145Z"/><path class="cls-4" d="M371.72,145,312,54.64l1.71-1.11L371.72,145Z"/><path class="cls-4" d="M371.72,145,315.35,51.47c.58-.36,1.17-.7,1.77-1L371.72,145Z"/><path class="cls-4" d="M371.72,145,321,52.3c.58-.32,1.17-.63,1.76-.94l49,93.64Z"/><path class="cls-4" d="M371.72,145,321.48,43.25q1-.48,1.92-.93L371.72,145Z"/><path class="cls-4" d="M371.72,145,326.47,42.78c.64-.29,1.28-.56,1.93-.84L371.72,145Z"/><path class="cls-4" d="M371.72,145,330.17,39.4c.66-.26,1.33-.52,2-.76L371.72,145Z"/><path class="cls-4" d="M371.72,145,337.78,46.86c.61-.22,1.23-.42,1.85-.63L371.72,145Z"/><path class="cls-4" d="M371.72,145,339.39,37.1l2-.59L371.72,145Z"/><path class="cls-4" d="M371.72,145,344.15,36.66l2-.5L371.72,145Z"/><path class="cls-4" d="M371.72,145l-23-109.4,2.06-.41,21,109.81Z"/><path class="cls-4" d="M371.72,145,353.88,38.15c.67-.12,1.34-.22,2-.32L371.72,145Z"/><path class="cls-4" d="M371.72,145,358.15,35.76l2.07-.23L371.72,145Z"/><path class="cls-4" d="M371.72,145,363,37.91c.67-.06,1.34-.11,2-.15L371.72,145Z"/><path class="cls-4" d="M371.72,145,367.55,40.32l2-.06L371.72,145Z"/></g><path class="cls-5" d="M370.36,47.77h2.38c.8,0,1.59,0,2.38,0"/><path class="cls-5" d="M374.71,49.74q1,0,2,.09l2,.13"/><path class="cls-5" d="M378.46,51.91l2.17.19,2.17.22"/><path class="cls-5" d="M382.33,53.33l2.09.28c.7.09,1.39.2,2.09.31"/><path class="cls-5" d="M386.3,49.86c.81.13,1.61.27,2.42.42s1.61.3,2.41.46"/><path class="cls-5" d="M391.22,46.51c.86.18,1.73.37,2.59.58s1.72.41,2.58.63"/><path class="cls-5" d="M393.35,55.1l2.24.62,2.21.67"/><path class="cls-5" d="M398.45,52.59c.74.23,1.47.47,2.2.72l2.19.77"/><path class="cls-5" d="M400.64,59.24l1.85.71c.61.24,1.22.48,1.83.74"/><path class="cls-5" d="M405.8,55.91l1.94.84,1.92.86"/><path class="cls-5" d="M411.18,52.94q1.14.53,2.28,1.08l2.25,1.14"/><path class="cls-5" d="M412.46,60c.68.36,1.36.72,2,1.1s1.34.75,2,1.14"/><path class="cls-5" d="M416.21,61.86l1.75,1L419.69,64"/><path class="cls-5" d="M416.91,68.29l1.7,1.13c.57.38,1.13.77,1.69,1.16"/><path class="cls-5" d="M428,57.62c.75.52,1.48,1.05,2.22,1.59s1.45,1.08,2.17,1.64"/><path class="cls-5" d="M431,60.58c.79.61,1.57,1.23,2.34,1.87s1.54,1.27,2.29,1.93"/><path class="cls-5" d="M432.88,65.32c.66.59,1.32,1.18,2,1.78s1.29,1.21,1.93,1.83"/><path class="cls-5" d="M434.31,70.32c.57.56,1.13,1.13,1.69,1.7s1.1,1.14,1.64,1.72"/><path class="cls-5" d="M441.35,69q.88.94,1.74,1.92c.57.64,1.14,1.3,1.7,2"/><path class="cls-5" d="M440.31,75.6c.56.66,1.1,1.33,1.64,2s1.07,1.36,1.59,2"/><path class="cls-5" d="M445.61,77.12c.47.62.92,1.24,1.37,1.87s.9,1.26,1.33,1.9"/><path class="cls-5" d="M446.15,81.94c.47.69.94,1.39,1.39,2.09s.91,1.42,1.35,2.13"/><path class="cls-5" d="M444.35,87.86c.43.7.84,1.4,1.26,2.11s.81,1.42,1.2,2.13"/><path class="cls-5" d="M451.3,88.11c.36.66.71,1.32,1.05,2s.69,1.33,1,2"/><path class="cls-5" d="M450.92,93.35q.51,1.05,1,2.1c.32.7.64,1.4.95,2.11"/><path class="cls-5" d="M454.64,95.71c.31.6.61,1.21.92,1.82s.59,1.23.88,1.84"/><path class="cls-5" d="M456.69,99.43c.32.7.63,1.41.94,2.11s.6,1.43.89,2.14"/><path class="cls-5" d="M460.16,101.71c.34.72.67,1.45,1,2.17s.63,1.46.93,2.2"/><path class="cls-5" d="M461.82,105.82c.29.71.58,1.43.86,2.15l.81,2.17"/><path class="cls-5" d="M458.71,111.48c.26.68.51,1.36.75,2s.47,1.37.7,2.06"/><path class="cls-5" d="M461.22,114.58c.22.67.43,1.34.64,2s.4,1.35.59,2"/><path class="cls-5" d="M467.89,116.84c.19.74.38,1.49.55,2.25s.35,1.5.51,2.26"/><path class="cls-5" d="M467,121q.3,1.37.57,2.73c.18.92.35,1.83.5,2.75"/><path class="cls-5" d="M470.81,124.29c.15.95.3,1.89.42,2.83s.25,1.89.36,2.84"/><path class="cls-5" d="M465.86,130c.08.7.17,1.4.24,2.1s.14,1.4.2,2.1"/><path class="cls-5" d="M467.38,133.8c.08.72.15,1.45.22,2.17s.12,1.45.17,2.17"/><path class="cls-5" d="M472.58,137.17c.06.79.1,1.59.14,2.38s.07,1.59.09,2.38"/><path class="cls-5" d="M467,142.12c0,.7,0,1.41,0,2.11s0,1.41,0,2.11"/><path class="cls-5" d="M462,145.87c0,.68-.09,1.36-.14,2s-.11,1.36-.18,2"/><path class="cls-5" d="M469,149.94c-.08.77-.16,1.54-.25,2.31s-.19,1.53-.3,2.29"/><path class="cls-5" d="M467.77,154.37c-.12.79-.24,1.57-.37,2.35s-.27,1.57-.41,2.35"/><path class="cls-5" d="M461.85,157.88l-.15,1.56c-.06.52-.11,1-.18,1.56"/><path class="cls-5" d="M460.42,160.7c-.13.72-.27,1.43-.42,2.14s-.31,1.42-.47,2.13"/><path class="cls-5" d="M466,165.52c-.19.77-.39,1.54-.6,2.3s-.43,1.53-.66,2.29"/><path class="cls-5" d="M465.67,169.57c-.18.84-.37,1.69-.56,2.53s-.41,1.67-.63,2.51"/><path class="cls-5" d="M461.46,173.27c-.2.66-.4,1.31-.61,1.95s-.43,1.3-.65,1.94"/><path class="cls-5" d="M463.25,177.16c-.28.82-.57,1.63-.87,2.44s-.6,1.62-.92,2.42"/><path class="cls-5" d="M457,179.59c-.27.67-.55,1.35-.84,2s-.58,1.34-.87,2"/><path class="cls-5" d="M462.12,185.82c-.34.76-.7,1.52-1.06,2.28s-.74,1.51-1.12,2.26"/><path class="cls-5" d="M457.59,188.71c-.38.64-.78,1.28-1.18,1.91s-.81,1.26-1.22,1.89"/><path class="cls-6" d="M471.42,201.7c-.43.58-.88,1.15-1.33,1.72s-.91,1.14-1.37,1.7"/><path class="cls-6" d="M464.55,202.56l-1.22,1.8-1.26,1.78"/><path class="cls-6" d="M465.71,209.24c-.44.55-.89,1.09-1.34,1.63l-1.38,1.6"/><path class="cls-6" d="M452.53,206l-1.11,1.1c-.38.36-.76.73-1.14,1.08"/><path class="cls-6" d="M457.05,214.82q-.68.69-1.35,1.35c-.45.45-.91.89-1.37,1.33"/><path class="cls-6" d="M448.68,213.41c-.43.47-.86.94-1.3,1.4s-.87.93-1.31,1.38"/><path class="cls-6" d="M449.91,220q-.77.81-1.56,1.62t-1.59,1.59"/><path class="cls-6" d="M437.28,214.19c-.41.36-.83.71-1.25,1.05l-1.27,1"/><path class="cls-6" d="M444.78,228.49l-1.5,1.28L441.76,231"/><path class="cls-6" d="M433.37,221.72c-.5.35-1,.69-1.52,1l-1.55,1"/><path class="cls-6" d="M428.45,222.73l-1.08.83-1.1.81"/><path class="cls-6" d="M430.37,231.82c-.57.37-1.14.74-1.72,1.1L426.91,234"/><path class="cls-6" d="M426.62,235.3c-.43.25-.87.49-1.31.73l-1.31.71"/><path class="cls-6" d="M423.56,238.07l-1.75.91-1.77.88"/><path class="cls-6" d="M417.8,236c-.59.29-1.19.57-1.78.84s-1.2.55-1.81.81"/><path class="cls-6" d="M418,247l-1.93.86-1.95.82"/><path class="cls-6" d="M410.15,239.61l-1.91.71c-.65.22-1.29.45-1.94.66"/><path class="cls-6" d="M406.49,243.26l-1.76.52c-.59.17-1.18.34-1.77.49"/><path class="cls-6" d="M403.1,248.17c-.48.11-1,.23-1.46.33l-1.46.32"/><path class="cls-6" d="M397.71,243.82l-1.67.34-1.68.3"/><path class="cls-6" d="M394.51,247.48l-2.13.45-2.14.41"/><path class="cls-6" d="M386,252.4l-1.89.26-1.89.22"/><path class="cls-6" d="M390.24,250l-1.89.26-1.89.23"/><path class="cls-6" d="M381.17,251.41l-1.7.16-1.69.13"/><path class="cls-6" d="M376.91,254.2c-.64,0-1.27,0-1.91,0l-1.91,0"/><path class="cls-6" d="M372.37,256h-2l-2-.05"/><path class="cls-6" d="M367.79,257.61l-2-.06-2-.09"/><path class="cls-6" d="M362.8,256.55l-1.9-.15-1.9-.18"/><path class="cls-6" d="M359,249.83l-2-.24c-.67-.08-1.35-.18-2-.28"/><path class="cls-6" d="M355.24,246.68l-1.94-.37c-.64-.13-1.29-.26-1.93-.41"/><path class="cls-6" d="M351.17,243.88l-1.74-.31-1.74-.34"/><path class="cls-6" d="M346.81,243.18l-1.53-.59-1.51-.61"/><path class="cls-6" d="M342.26,244.65c-.57-.23-1.13-.47-1.69-.72s-1.13-.49-1.68-.75"/><path class="cls-6" d="M337.51,245.15l-1.66-.78-1.65-.81"/><path class="cls-6" d="M335.35,238.34l-1.82-.94c-.6-.32-1.2-.64-1.79-1"/><path class="cls-6" d="M329.82,242.15c-.68-.37-1.35-.75-2-1.14l-2-1.18"/><path class="cls-6" d="M322.43,245.47c-.6-.37-1.19-.74-1.78-1.13s-1.18-.76-1.77-1.16"/><path class="cls-6" d="M319.77,240.15l-1.29-.9-1.27-.91"/><path class="cls-6" d="M319.5,232.82l-1.64-1.22c-.54-.41-1.08-.82-1.62-1.25"/><path class="cls-6" d="M316,229.82l-1.32-1.07c-.44-.36-.87-.73-1.3-1.1"/><path class="cls-6" d="M312.74,227.15,311.41,226l-1.32-1.18"/><path class="cls-6" d="M305.87,229.06l-1.5-1.39-1.46-1.42"/><path class="cls-6" d="M304.12,224.21c-.42-.41-.83-.83-1.24-1.26l-1.23-1.28"/><path class="cls-6" d="M305.89,215.78l-1.05-1.16-1-1.17"/><path class="cls-6" d="M299.27,216.88l-1.2-1.4-1.17-1.41"/><path class="cls-6" d="M295.52,214.61c-.43-.53-.85-1.06-1.27-1.6s-.83-1.07-1.24-1.62"/><path class="cls-6" d="M292.78,211.39l-1.16-1.59q-.58-.81-1.14-1.62"/><path class="cls-6" d="M286.38,210.44c-.37-.54-.74-1.09-1.1-1.64s-.72-1.1-1.07-1.66"/><path class="cls-6" d="M292,201.19l-.89-1.45c-.3-.49-.58-1-.87-1.47"/><path class="cls-6" d="M285.29,200.62c-.32-.55-.63-1.1-.94-1.65s-.61-1.12-.91-1.68"/><path class="cls-7" d="M278.33,200c-.35-.66-.7-1.33-1-2s-.67-1.34-1-2"/><path class="cls-7" d="M279.8,193.5c-.27-.55-.52-1.11-.77-1.67s-.5-1.12-.74-1.68"/><path class="cls-7" d="M267.51,194.55c-.27-.63-.53-1.25-.79-1.89s-.51-1.26-.75-1.9"/><path class="cls-7" d="M272,187.59c-.24-.61-.46-1.23-.69-1.85s-.44-1.24-.65-1.87"/><path class="cls-7" d="M268.73,184l-.63-1.94c-.2-.65-.4-1.3-.59-1.95"/><path class="cls-7" d="M258.48,182.43c-.19-.66-.37-1.31-.55-2s-.35-1.32-.51-2"/><path class="cls-7" d="M280.06,171.29c-.13-.55-.26-1.11-.38-1.66s-.25-1.11-.36-1.66"/><path class="cls-7" d="M258,172.17l-.39-1.94c-.12-.64-.23-1.29-.35-1.94"/><path class="cls-7" d="M261.93,166.14c-.09-.56-.17-1.12-.26-1.68s-.16-1.13-.23-1.69"/><path class="cls-7" d="M257.22,163.09c-.11-.81-.21-1.62-.31-2.43s-.17-1.63-.24-2.44"/><path class="cls-7" d="M262.17,157.26c-.06-.72-.11-1.44-.16-2.17s-.09-1.45-.12-2.18"/><path class="cls-7" d="M262.64,152.48c0-.61,0-1.23-.05-1.84s0-1.23,0-1.84"/><path class="cls-7" d="M259.05,148.11c0-.69,0-1.37,0-2.05s0-1.36.06-2"/><path class="cls-7" d="M268.72,143.13q0-.85.09-1.71c0-.56.07-1.13.11-1.69"/><path class="cls-7" d="M268.09,139.12c.05-.63.11-1.27.17-1.9s.12-1.26.19-1.9"/><path class="cls-7" d="M263,134.43q.12-1.08.27-2.16t.3-2.16"/><path class="cls-7" d="M262.78,129.73c.1-.67.22-1.34.34-2s.24-1.34.37-2"/><path class="cls-7" d="M253.64,123.7c.16-.85.34-1.69.52-2.53s.38-1.69.59-2.53"/><path class="cls-7" d="M254.75,117.81c.15-.57.3-1.14.46-1.71s.32-1.13.48-1.7"/><path class="cls-7" d="M270,116.7c.14-.48.29-1,.44-1.43s.31-1,.46-1.43"/><path class="cls-7" d="M263.73,110.72c.23-.69.46-1.38.7-2.06s.49-1.37.74-2"/><path class="cls-7" d="M275.81,110.15c.23-.6.46-1.19.7-1.78s.47-1.18.72-1.76"/><path class="cls-7" d="M260.89,99c.24-.58.5-1.17.76-1.75s.52-1.16.79-1.73"/><path class="cls-7" d="M273.42,99.29c.26-.56.53-1.11.8-1.66s.54-1.1.82-1.64"/><path class="cls-7" d="M272.1,94.09c.34-.67.69-1.33,1-2l1.09-2"/><path class="cls-7" d="M270.94,87.57c.36-.63.73-1.26,1.1-1.88s.75-1.25,1.14-1.86"/><path class="cls-7" d="M280.7,88.11c.34-.54.69-1.07,1-1.6s.7-1.06,1.06-1.59"/><path class="cls-7" d="M283.68,84.92l1.18-1.67c.39-.55.8-1.1,1.2-1.65"/><path class="cls-7" d="M284.35,79.57c.38-.51.77-1,1.16-1.51s.79-1,1.19-1.49"/><path class="cls-7" d="M281.85,71.54c.43-.53.87-1.06,1.31-1.58s.88-1,1.33-1.54"/><path class="cls-7" d="M284.08,66.84c.42-.48.85-1,1.28-1.42s.86-.93,1.3-1.39"/><path class="cls-7" d="M284.08,60.75c.59-.62,1.19-1.24,1.8-1.85s1.22-1.22,1.85-1.82"/><path class="cls-7" d="M296.37,65.78c.46-.44.93-.87,1.4-1.29s.94-.86,1.42-1.27"/><path class="cls-7" d="M300.56,63.54,302,62.3l1.48-1.21"/><path class="cls-7" d="M305.15,61.85l1.39-1.09L308,59.68"/><path class="cls-7" d="M300.56,48.53l1.65-1.21c.55-.39,1.11-.79,1.67-1.17"/><path class="cls-7" d="M310.69,55.4q.94-.66,1.92-1.29c.64-.43,1.29-.84,1.95-1.26"/><path class="cls-7" d="M314.41,52l1.8-1.1L318,49.84"/><path class="cls-7" d="M320,52.85l1.79-1,1.8-.95"/><path class="cls-7" d="M320.43,43.79c.62-.32,1.25-.63,1.89-.94l1.9-.91"/><path class="cls-7" d="M325.41,43.16l1.93-.86,2-.82"/><path class="cls-7" d="M329.29,39.76c.65-.27,1.3-.53,2-.78l2-.74"/><path class="cls-7" d="M336.89,47.05l1.74-.6,1.75-.58"/><path class="cls-7" d="M338.29,37.4l2.08-.64c.7-.21,1.39-.41,2.1-.6"/><path class="cls-7" d="M342.85,37.05l2.18-.56c.72-.18,1.45-.36,2.18-.52"/><path class="cls-7" d="M347.83,35.81l2-.42,2-.39"/><path class="cls-7" d="M353.2,38.29l1.68-.28,1.69-.25"/><path class="cls-7" d="M357.23,35.91c.67-.1,1.35-.19,2-.27l2-.23"/><path class="cls-7" d="M361.87,38l2.3-.22,2.31-.16"/><path class="cls-7" d="M366.48,40.33l2-.09,2.05-.05"/><text class="cls-8" transform="translate(80.99 14.45)">Iris Petals</text><text class="cls-8" transform="translate(332.52 14.45)">Iris Sepals</text><text class="cls-9" transform="translate(565.39 124.54)">Iris Setosa</text><text class="cls-9" transform="translate(565.39 178.29)">Iris Virginica</text><text class="cls-9" transform="translate(565.39 152.44)">Iris Versicolor</text><rect class="cls-10" x="539.2" y="110.5" width="21" height="21"/><rect class="cls-11" x="539.2" y="163.51" width="21" height="21"/><rect class="cls-12" x="539.2" y="136.92" width="21" height="21"/></g></g></svg>