<svg xmlns="http://www.w3.org/2000/svg" viewBox="0 0 312.6 377.63"><defs><style>.cls-1{isolation:isolate;font-size:24px;font-family:ArialMT, Arial;}.cls-2{opacity:0.4;}.cls-3{fill:#41ab5d;}.cls-4{fill:#807dba;}.cls-5{fill:#fb6a4a;}.cls-6,.cls-7,.cls-8{fill:none;stroke-linecap:round;stroke-linejoin:round;}.cls-6{stroke:#2aa640;}.cls-7{stroke:#8057d0;}.cls-8{stroke:#ff5337;}</style></defs><title>Asset 2</title><g id="Layer_2" data-name="Layer 2"><g id="Layer_1-2" data-name="Layer 1"><text class="cls-1" transform="translate(112.16 20.6)">Iris Sepals</text><g class="cls-2"><path class="cls-3" d="M168.38,217l.29-138.22q1.31,0,2.61,0L168.38,217Z"/><path class="cls-3" d="M168.38,217l6-135.28,2.55.14L168.38,217Z"/><path class="cls-3" d="M168.38,217,179.75,85q1.25.1,2.49.24L168.38,217Z"/><path class="cls-3" d="M168.38,217,185.09,87l2.44.34L168.38,217Z"/><path class="cls-3" d="M168.38,217l23.1-134.86,2.54.46L168.38,217Z"/><path class="cls-3" d="M168.38,217,198.27,77.87c.87.19,1.75.38,2.62.59L168.38,217Z"/><path class="cls-3" d="M168.38,217,201.25,90.14l2.38.64L168.38,217Z"/><path class="cls-3" d="M168.38,217,208.2,86.13c.83.25,1.65.51,2.47.78L168.38,217Z"/><path class="cls-3" d="M168.38,217,210.77,96.14c.76.26,1.52.54,2.27.82L168.38,217Z"/><path class="cls-3" d="M168.38,217,218.5,91.24c.79.31,1.57.63,2.36,1L168.38,217Z"/><path class="cls-3" d="M168.38,217,226.55,87.12,229,88.24,168.38,217Z"/><path class="cls-3" d="M168.38,217,228.21,97.15c.75.37,1.5.76,2.25,1.15L168.38,217Z"/><path class="cls-3" d="M168.38,217l64.8-117.27,2.2,1.24-67,116Z"/><path class="cls-3" d="M168.38,217l65.81-108.15c.68.41,1.36.83,2,1.26L168.38,217Z"/><path class="cls-3" d="M168.38,217l82-122.8c.77.51,1.53,1,2.3,1.57L168.38,217Z"/><path class="cls-3" d="M168.38,217l86.26-118.2c.75.54,1.49,1.09,2.22,1.64L168.38,217Z"/><path class="cls-3" d="M168.38,217,257,105.67l2.08,1.69L168.38,217Z"/><path class="cls-3" d="M168.38,217l90.54-104.44c.66.57,1.31,1.14,1.95,1.72L168.38,217Z"/><path class="cls-3" d="M168.38,217l100.4-106.46c.67.63,1.33,1.27,2,1.91L168.38,217Z"/><path class="cls-3" d="M168.38,217l99-96.5c.61.62,1.21,1.25,1.8,1.88L168.38,217Z"/><path class="cls-3" d="M168.38,217l106-95c.6.67,1.19,1.34,1.77,2L168.38,217Z"/><path class="cls-3" d="M168.38,217l106.69-87.88c.55.67,1.1,1.35,1.64,2L168.38,217Z"/><path class="cls-3" d="M168.38,217,273,138c.5.66,1,1.32,1.47,2l-106,77Z"/><path class="cls-3" d="M168.38,217l113.67-78.64c.49.71,1,1.43,1.46,2.15L168.38,217Z"/><path class="cls-3" d="M168.38,217l113.28-71.55c.45.71.89,1.43,1.33,2.15L168.38,217Z"/><path class="cls-3" d="M168.38,217,287,148.87c.43.75.85,1.49,1.26,2.25L168.38,217Z"/><path class="cls-3" d="M168.38,217,289.77,153.9c.4.76.79,1.53,1.17,2.3L168.38,217Z"/><path class="cls-3" d="M168.38,217l126.45-59.17c.37.79.73,1.59,1.09,2.39L168.38,217Z"/><path class="cls-3" d="M168.38,217,297.2,163.2l1,2.44L168.38,217Z"/><path class="cls-3" d="M168.38,217l124.33-45.94c.29.79.57,1.57.84,2.36L168.38,217Z"/><path class="cls-3" d="M168.38,217,295.9,175.9l.75,2.41L168.38,217Z"/><path class="cls-3" d="M168.38,217l137.18-38c.24.87.47,1.73.69,2.6L168.38,217Z"/><path class="cls-3" d="M168.38,217l136-31.59c.2.85.39,1.71.57,2.57L168.38,217Z"/><path class="cls-3" d="M168.38,217l141.2-26.62c.16.88.32,1.77.47,2.66L168.38,217Z"/><path class="cls-3" d="M168.38,217l134-19.5c.13.84.24,1.69.35,2.53L168.38,217Z"/><path class="cls-3" d="M168.38,217l136.11-14c.09.85.17,1.71.24,2.56L168.38,217Z"/><path class="cls-3" d="M168.38,217l143.42-8.72c.05.9.1,1.8.14,2.71l-143.56,6Z"/><path class="cls-3" d="M168.38,217l135.39-2.55c0,.85,0,1.7,0,2.55Z"/><path class="cls-3" d="M168.38,217,296.46,220c0,.81,0,1.61-.08,2.42l-128-5.37Z"/><path class="cls-3" d="M168.38,217l137.94,9c-.06.87-.13,1.73-.2,2.6L168.38,217Z"/><path class="cls-3" d="M168.38,217l136.05,14.59c-.09.85-.19,1.71-.3,2.56L168.38,217Z"/><path class="cls-3" d="M168.38,217l128.18,19.2c-.12.81-.25,1.61-.39,2.42L168.38,217Z"/><path class="cls-3" d="M168.38,217l125.8,24.27-.48,2.37L168.38,217Z"/><path class="cls-3" d="M168.38,217l133.15,31.53c-.2.83-.41,1.67-.62,2.5L168.38,217Z"/><path class="cls-3" d="M168.38,217l133.06,37.45c-.24.84-.48,1.67-.73,2.5L168.38,217Z"/><path class="cls-3" d="M168.38,217,295.72,258.7q-.39,1.2-.81,2.4L168.38,217Z"/><path class="cls-3" d="M168.38,217l129.46,48.45c-.31.82-.62,1.63-.94,2.44L168.38,217Z"/><path class="cls-3" d="M168.38,217l120.73,51c-.32.76-.64,1.52-1,2.27L168.38,217Z"/><path class="cls-3" d="M168.38,217l127.44,60.3c-.38.8-.77,1.59-1.16,2.39L168.38,217Z"/><path class="cls-3" d="M168.38,217,289.5,280.68c-.4.76-.8,1.51-1.22,2.27L168.38,217Z"/><path class="cls-4" d="M168.38,217,309,298.59c-.52.88-1,1.76-1.57,2.64l-139-84.2Z"/><path class="cls-4" d="M168.38,217,299.3,300.5c-.52.82-1.05,1.64-1.59,2.45L168.38,217Z"/><path class="cls-4" d="M168.38,217l132.29,92.36c-.58.83-1.16,1.66-1.76,2.48L168.38,217Z"/><path class="cls-4" d="M168.38,217l114.27,87.11c-.55.72-1.1,1.43-1.66,2.14L168.38,217Z"/><path class="cls-4" d="M168.38,217,288.76,317c-.63.76-1.27,1.51-1.91,2.25L168.38,217Z"/><path class="cls-4" d="M168.38,217l108.55,98.15c-.62.68-1.24,1.36-1.87,2L168.38,217Z"/><path class="cls-4" d="M168.38,217,278.2,325c-.68.69-1.36,1.38-2.05,2.06L168.38,217Z"/><path class="cls-4" d="M168.38,217l92.49,98.91c-.62.58-1.25,1.15-1.88,1.72L168.38,217Z"/><path class="cls-4" d="M168.38,217,271.19,336.64c-.75.65-1.51,1.29-2.27,1.92L168.38,217Z"/><path class="cls-4" d="M168.38,217l86.49,109.59c-.69.55-1.38,1.08-2.08,1.61L168.38,217Z"/><path class="cls-4" d="M168.38,217l80.2,110.86c-.7.51-1.4,1-2.11,1.5L168.38,217Z"/><path class="cls-4" d="M168.38,217l82.17,124.23c-.78.52-1.57,1-2.36,1.53L168.38,217Z"/><path class="cls-4" d="M168.38,217l77.56,128.66c-.81.49-1.63,1-2.44,1.44L168.38,217Z"/><path class="cls-4" d="M168.38,217,241.09,350c-.83.45-1.67.9-2.52,1.34L168.38,217Z"/><path class="cls-4" d="M168.38,217l64.21,130c-.82.4-1.64.8-2.46,1.18L168.38,217Z"/><path class="cls-4" d="M168.38,217l64.35,145.33c-.92.41-1.83.8-2.76,1.19L168.38,217Z"/><path class="cls-4" d="M168.38,217,221.48,352c-.84.34-1.69.66-2.55,1L168.38,217Z"/><path class="cls-4" d="M168.38,217l48.27,139.53c-.88.31-1.76.6-2.64.89L168.38,217Z"/><path class="cls-4" d="M168.38,217l43.85,146.34c-.92.28-1.84.54-2.76.8L168.38,217Z"/><path class="cls-4" d="M168.38,217l35.77,140.54c-.88.22-1.76.44-2.65.64L168.38,217Z"/><path class="cls-4" d="M168.38,217l30.67,145.75c-.92.19-1.84.38-2.76.55L168.38,217Z"/><path class="cls-4" d="M168.38,217l25,149.43-2.82.45L168.38,217Z"/><path class="cls-4" d="M168.38,217l19,152.85c-1,.12-1.92.23-2.89.33L168.38,217Z"/><path class="cls-4" d="M168.38,217l12.37,151c-.95.08-1.9.14-2.85.2L168.38,217Z"/><path class="cls-4" d="M168.38,217l6.18,155.14c-1,0-1.95.07-2.92.09L168.38,217Z"/><path class="cls-4" d="M168.38,217l-.33,157.72-3,0L168.38,217Z"/><path class="cls-4" d="M168.38,217l-7,160c-1,0-2-.1-3-.16l10-159.83Z"/><path class="cls-4" d="M168.38,217,154.75,375.38c-1-.08-2-.18-3-.28L168.38,217Z"/><path class="cls-4" d="M168.38,217,149.24,366l-2.8-.38L168.38,217Z"/><path class="cls-4" d="M168.38,217l-24.7,144.24c-.91-.16-1.81-.32-2.72-.5L168.38,217Z"/><path class="cls-4" d="M168.38,217,138.22,357.51l-2.65-.59L168.38,217Z"/><path class="cls-4" d="M168.38,217l-36,139.09c-.87-.22-1.74-.46-2.61-.7L168.38,217Z"/><path class="cls-4" d="M168.38,217l-43,141.25c-.89-.27-1.78-.54-2.66-.83L168.38,217Z"/><path class="cls-4" d="M168.38,217,118.68,358.8c-.89-.31-1.78-.63-2.66-1L168.38,217Z"/><path class="cls-4" d="M168.38,217,115.71,349.26l-2.48-1L168.38,217Z"/><path class="cls-4" d="M168.38,217,107,354.14c-.86-.38-1.71-.78-2.57-1.18l64-135.93Z"/><path class="cls-4" d="M168.38,217l-71,142.22c-.9-.45-1.79-.9-2.67-1.37L168.38,217Z"/><path class="cls-4" d="M168.38,217,93.9,351.84c-.84-.46-1.69-.94-2.53-1.42l77-133.39Z"/><path class="cls-4" d="M168.38,217,93,340.91c-.77-.47-1.55-1-2.32-1.44L168.38,217Z"/><path class="cls-4" d="M168.38,217,88.62,336.54,86.38,335l82-118Z"/><path class="cls-4" d="M168.38,217,83.69,333.1l-2.17-1.62L168.38,217Z"/><path class="cls-4" d="M168.38,217,74,335.57l-2.22-1.8L168.38,217Z"/><path class="cls-4" d="M168.38,217,71.68,328.6l-2.09-1.85L168.38,217Z"/><path class="cls-4" d="M168.38,217,74.51,316.58l-1.86-1.79L168.38,217Z"/><path class="cls-4" d="M168.38,217,64.56,318.28c-.63-.66-1.26-1.31-1.89-2L168.38,217Z"/><path class="cls-4" d="M168.38,217,59.43,314.72c-.61-.68-1.22-1.37-1.82-2.07L168.38,217Z"/><path class="cls-4" d="M168.38,217l-112.94,93c-.59-.71-1.17-1.42-1.74-2.14L168.38,217Z"/><path class="cls-4" d="M168.38,217,46.51,309.14q-.87-1.15-1.71-2.31L168.38,217Z"/><path class="cls-4" d="M168.38,217,54.72,295.68c-.5-.71-1-1.43-1.46-2.16L168.38,217Z"/><path class="cls-4" d="M168.38,217,44.67,295.18c-.49-.77-1-1.56-1.45-2.34L168.38,217Z"/><path class="cls-5" d="M168.38,217,34.84,293.76c-.48-.84-1-1.68-1.42-2.53l135-74.2Z"/><path class="cls-5" d="M168.38,217l-131,68.13c-.43-.82-.85-1.65-1.26-2.48L168.38,217Z"/><path class="cls-5" d="M168.38,217,20.11,286.42c-.43-.93-.86-1.86-1.28-2.8L168.38,217Z"/><path class="cls-5" d="M168.38,217,26.28,276.42c-.38-.89-.74-1.79-1.1-2.69L168.38,217Z"/><path class="cls-5" d="M168.38,217,21.59,271.28c-.34-.93-.67-1.85-1-2.78L168.38,217Z"/><path class="cls-5" d="M168.38,217l-161.29,52c-.33-1-.64-2-1-3.05l162.24-49Z"/><path class="cls-5" d="M168.38,217,37.89,253.17q-.35-1.23-.66-2.46L168.38,217Z"/><path class="cls-5" d="M168.38,217,6.65,254.61c-.23-1-.46-2-.68-3.06L168.38,217Z"/><path class="cls-5" d="M168.38,217,12.2,246.49c-.18-1-.36-2-.53-3L168.38,217Z"/><path class="cls-5" d="M168.38,217,5.23,240.78c-.15-1-.29-2.05-.42-3.08L168.38,217Z"/><path class="cls-5" d="M168.38,217l-155.67,16q-.15-1.47-.27-2.94L168.38,217Z"/><path class="cls-5" d="M168.38,217l-155,9.43c-.06-1-.11-2-.15-2.93L168.38,217Z"/><path class="cls-5" d="M168.38,217l-160.11,3c0-1,0-2,0-3Z"/><path class="cls-5" d="M168.38,217,22.09,213.66c0-.92.05-1.84.09-2.75L168.38,217Z"/><path class="cls-5" d="M168.38,217,21.05,207.45c.06-.92.13-1.85.21-2.77L168.38,217Z"/><path class="cls-5" d="M168.38,217,14,200.48c.1-1,.21-1.94.34-2.91l154,19.46Z"/><path class="cls-5" d="M168.38,217,13.61,193.85c.15-1,.31-1.95.47-2.92L168.38,217Z"/><path class="cls-5" d="M168.38,217,.86,184.71c.21-1.05.42-2.1.64-3.15L168.38,217Z"/><path class="cls-5" d="M168.38,217l-166-39.3c.25-1,.51-2.09.77-3.13L168.38,217Z"/><path class="cls-5" d="M168.38,217l-144.6-40.7c.25-.91.52-1.81.79-2.72L168.38,217Z"/><path class="cls-5" d="M168.38,217,15.05,166.86c.31-1,.64-1.93,1-2.89L168.38,217Z"/><path class="cls-5" d="M168.38,217,32.57,166.2c.32-.85.65-1.7,1-2.55L168.38,217Z"/><path class="cls-5" d="M168.38,217,11.24,150.59c.42-1,.85-2,1.28-3L168.38,217Z"/><path class="cls-5" d="M168.38,217,29.16,151.16c.42-.87.84-1.74,1.27-2.61l138,68.48Z"/><path class="cls-5" d="M168.38,217,27.69,143.1c.46-.88.94-1.76,1.42-2.63L168.38,217Z"/><path class="cls-5" d="M168.38,217,25.77,134.3c.52-.9,1.05-1.79,1.59-2.68l141,85.41Z"/><path class="cls-5" d="M168.38,217,39.57,134.91c.52-.81,1-1.62,1.57-2.42L168.38,217Z"/><path class="cls-5" d="M168.38,217,44.16,130.31c.55-.78,1.1-1.56,1.66-2.33L168.38,217Z"/><path class="cls-5" d="M168.38,217,44.91,122.9q.89-1.16,1.8-2.31L168.38,217Z"/><path class="cls-5" d="M168.38,217,41.57,111.67c.66-.8,1.33-1.59,2-2.37L168.38,217Z"/><path class="cls-5" d="M168.38,217,44.37,104.9c.7-.78,1.42-1.55,2.14-2.32L168.38,217Z"/><path class="cls-5" d="M168.38,217,45.14,95.84c.76-.78,1.53-1.54,2.31-2.3L168.38,217Z"/><path class="cls-5" d="M168.38,217l-106-113.4c.71-.67,1.43-1.33,2.15-2L168.38,217Z"/><path class="cls-5" d="M168.38,217,68,100.23c.73-.63,1.47-1.25,2.22-1.87L168.38,217Z"/><path class="cls-5" d="M168.38,217,74.53,98.11c.75-.59,1.5-1.18,2.26-1.75L168.38,217Z"/><path class="cls-5" d="M168.38,217,68.39,78.8c.87-.63,1.74-1.25,2.63-1.86L168.38,217Z"/><path class="cls-5" d="M168.38,217l-85-128.46C84.23,88,85,87.51,85.86,87l82.52,130Z"/><path class="cls-5" d="M168.38,217l-80.15-133,2.52-1.49L168.38,217Z"/><path class="cls-5" d="M168.38,217,96.29,85.24c.83-.45,1.66-.9,2.5-1.34L168.38,217Z"/><path class="cls-5" d="M168.38,217,97,72.37c.91-.45,1.82-.89,2.74-1.32l68.69,146Z"/><path class="cls-5" d="M168.38,217,104,71.7c.92-.4,1.83-.8,2.75-1.18L168.38,217Z"/><path class="cls-5" d="M168.38,217,109.31,66.9l2.84-1.09L168.38,217Z"/><path class="cls-5" d="M168.38,217,120.12,77.5c.88-.3,1.76-.6,2.64-.88L168.38,217Z"/><path class="cls-5" d="M168.38,217l-46-153.4c1-.29,1.93-.57,2.9-.84L168.38,217Z"/><path class="cls-5" d="M168.38,217,129.18,63c1-.25,1.94-.49,2.91-.71L168.38,217Z"/><path class="cls-5" d="M168.38,217,135.67,61.5l2.93-.59L168.38,217Z"/><path class="cls-5" d="M168.38,217,143,65.12c.95-.16,1.91-.31,2.86-.45L168.38,217Z"/><path class="cls-5" d="M168.38,217,149.1,61.73l2.93-.34L168.38,217Z"/><path class="cls-5" d="M168.38,217,155.92,64.78c1-.08,1.91-.15,2.87-.21L168.38,217Z"/><path class="cls-5" d="M168.38,217,162.46,68.21c.93,0,1.87-.06,2.81-.08L168.38,217Z"/></g><path class="cls-6" d="M166.44,78.8c1.13,0,2.26,0,3.39,0s2.26,0,3.39,0"/><path class="cls-6" d="M172.64,81.6c1,0,1.93.08,2.9.13s1.93.11,2.9.18"/><path class="cls-6" d="M178,84.69c1,.08,2.06.16,3.09.26l3.08.32"/><path class="cls-6" d="M183.46,86.71l3,.39c1,.13,2,.28,3,.44"/><path class="cls-6" d="M189.11,81.78c1.15.18,2.29.37,3.44.58s2.28.43,3.42.67"/><path class="cls-6" d="M196.1,77c1.23.26,2.46.53,3.69.82s2.45.58,3.67.9"/><path class="cls-6" d="M199.14,89.23c1.06.28,2.12.57,3.17.88s2.11.62,3.16.94"/><path class="cls-6" d="M206.39,85.65c1,.33,2.09.68,3.12,1s2.08.72,3.11,1.09"/><path class="cls-6" d="M209.5,95.11l2.63,1,2.6,1"/><path class="cls-6" d="M216.83,90.38c.92.38,1.84.78,2.76,1.18s1.83.81,2.74,1.23"/><path class="cls-6" d="M224.48,86.15c1.08.5,2.16,1,3.24,1.54s2.13,1.06,3.19,1.61"/><path class="cls-6" d="M226.3,96.13c1,.51,1.94,1,2.9,1.56s1.91,1.07,2.86,1.63"/><path class="cls-6" d="M231.63,98.83q1.25.73,2.49,1.5c.82.51,1.64,1,2.45,1.55"/><path class="cls-6" d="M232.63,108c.81.53,1.62,1.06,2.42,1.6s1.6,1.09,2.39,1.65"/><path class="cls-6" d="M248.34,92.81c1.06.73,2.11,1.49,3.15,2.25s2.07,1.54,3.09,2.33"/><path class="cls-6" d="M252.65,97c1.12.87,2.23,1.75,3.33,2.66s2.18,1.81,3.25,2.74"/><path class="cls-6" d="M255.33,103.75c.94.84,1.88,1.68,2.8,2.53s1.84,1.72,2.74,2.6"/><path class="cls-6" d="M257.37,110.87c.81.79,1.6,1.59,2.39,2.4s1.57,1.63,2.34,2.45"/><path class="cls-6" d="M267.38,109c.83.9,1.66,1.81,2.47,2.73s1.62,1.84,2.41,2.78"/><path class="cls-6" d="M265.9,118.36c.79.94,1.56,1.89,2.33,2.85s1.52,1.93,2.26,2.9"/><path class="cls-6" d="M273.44,120.53c.66.88,1.3,1.76,1.94,2.66s1.27,1.79,1.9,2.69"/><path class="cls-6" d="M274.19,127.37c.68,1,1.34,2,2,3s1.29,2,1.92,3"/><path class="cls-6" d="M271.64,135.8c.6,1,1.2,2,1.78,3s1.16,2,1.72,3"/><path class="cls-6" d="M281.52,136.15q.76,1.41,1.5,2.82c.49.95,1,1.9,1.44,2.86"/><path class="cls-6" d="M281,143.61c.49,1,1,2,1.42,3s.91,2,1.35,3"/><path class="cls-6" d="M286.26,147c.45.86.88,1.73,1.31,2.6s.85,1.74,1.26,2.62"/><path class="cls-6" d="M289.18,152.24c.46,1,.9,2,1.34,3s.86,2,1.27,3"/><path class="cls-6" d="M294.12,155.49c.48,1,.94,2,1.4,3.09s.9,2.07,1.33,3.11"/><path class="cls-6" d="M296.48,161.32c.41,1,.82,2,1.21,3.07s.78,2.05,1.15,3.08"/><path class="cls-6" d="M292.06,169.37c.36,1,.71,1.94,1.06,2.92s.67,2,1,2.93"/><path class="cls-6" d="M295.63,173.78l.9,2.87q.44,1.42.84,2.88"/><path class="cls-6" d="M305.1,177c.28,1.07.54,2.13.79,3.2s.49,2.14.72,3.21"/><path class="cls-6" d="M303.78,182.85c.29,1.29.56,2.59.82,3.89s.49,2.6.71,3.9"/><path class="cls-6" d="M309.26,187.59c.22,1.34.42,2.68.6,4s.35,2.69.5,4"/><path class="cls-6" d="M302.22,195.66c.12,1,.24,2,.34,3s.2,2,.29,3"/><path class="cls-6" d="M304.38,201.11c.11,1,.21,2.06.31,3.08s.18,2.06.25,3.09"/><path class="cls-6" d="M311.78,205.9c.08,1.13.14,2.26.2,3.39s.09,2.25.12,3.38"/><path class="cls-6" d="M303.78,212.93c0,1,0,2,0,3s0,2,0,3"/><path class="cls-6" d="M296.69,218.27c-.06,1-.13,1.93-.2,2.9s-.16,1.93-.25,2.89"/><path class="cls-6" d="M306.64,224.06q-.17,1.63-.36,3.27t-.42,3.27"/><path class="cls-6" d="M304.93,230.35c-.16,1.12-.33,2.24-.52,3.35s-.38,2.23-.59,3.34"/><path class="cls-6" d="M296.52,235.34c-.07.74-.14,1.48-.22,2.22s-.16,1.48-.25,2.21"/><path class="cls-6" d="M294.49,239.35c-.19,1-.39,2-.61,3s-.43,2-.67,3"/><path class="cls-6" d="M302.42,246.2c-.27,1.09-.56,2.19-.86,3.28s-.61,2.17-.93,3.26"/><path class="cls-6" d="M302,252c-.25,1.2-.52,2.4-.8,3.59s-.58,2.39-.89,3.57"/><path class="cls-6" d="M296,257.23c-.28.93-.57,1.85-.86,2.77s-.61,1.84-.92,2.76"/><path class="cls-6" d="M298.51,262.76c-.4,1.16-.81,2.31-1.23,3.47s-.86,2.29-1.32,3.43"/><path class="cls-6" d="M289.68,266.21c-.38,1-.78,1.91-1.19,2.86s-.82,1.9-1.25,2.84"/><path class="cls-6" d="M296.91,275.06c-.49,1.09-1,2.17-1.52,3.25s-1.05,2.14-1.59,3.21"/><path class="cls-6" d="M290.47,279.17c-.55.91-1.12,1.82-1.68,2.72s-1.15,1.79-1.74,2.68"/><path class="cls-7" d="M310.13,297.64c-.62.83-1.26,1.64-1.9,2.45s-1.28,1.62-1.94,2.42"/><path class="cls-7" d="M300.35,298.86c-.57.86-1.15,1.72-1.73,2.57s-1.19,1.69-1.79,2.53"/><path class="cls-7" d="M302,308.37c-.63.77-1.27,1.55-1.91,2.31s-1.3,1.52-2,2.28"/><path class="cls-7" d="M283.27,303.69l-1.58,1.56-1.61,1.54"/><path class="cls-7" d="M289.69,316.3l-1.91,1.92-1.95,1.88"/><path class="cls-7" d="M277.79,314.29c-.61.67-1.22,1.33-1.84,2s-1.24,1.32-1.87,2"/><path class="cls-7" d="M279.55,323.66c-.73.77-1.47,1.54-2.22,2.3s-1.5,1.51-2.26,2.26"/><path class="cls-7" d="M261.59,315.4l-1.78,1.5-1.8,1.46"/><path class="cls-7" d="M272.25,335.72l-2.13,1.83c-.72.6-1.44,1.2-2.17,1.79"/><path class="cls-7" d="M256,326.11l-2.17,1.45L251.67,329"/><path class="cls-7" d="M249,327.55l-1.55,1.17-1.55,1.15"/><path class="cls-7" d="M251.77,340.46c-.81.53-1.63,1.05-2.45,1.57s-1.64,1-2.47,1.52"/><path class="cls-7" d="M246.44,345.41l-1.86,1-1.88,1"/><path class="cls-7" d="M242.08,349.34c-.83.44-1.66.88-2.49,1.3s-1.67.85-2.51,1.26"/><path class="cls-7" d="M233.9,346.44l-2.54,1.19c-.85.4-1.71.78-2.56,1.16"/><path class="cls-7" d="M234.1,362c-.91.42-1.82.83-2.74,1.22s-1.84.79-2.77,1.17"/><path class="cls-7" d="M223,351.54c-.9.35-1.81.68-2.73,1s-1.82.64-2.74.95"/><path class="cls-7" d="M217.81,356.73l-2.5.74-2.52.7"/><path class="cls-7" d="M213,363.71l-2.08.47c-.69.16-1.38.31-2.08.45"/><path class="cls-7" d="M205.33,357.53,203,358l-2.38.44"/><path class="cls-7" d="M200.78,362.72c-1,.22-2,.44-3,.64s-2,.4-3,.59"/><path class="cls-7" d="M188.64,369.72c-.89.13-1.79.26-2.68.37l-2.7.32"/><path class="cls-7" d="M194.71,366.33l-2.69.37-2.69.32"/><path class="cls-7" d="M181.82,368.31l-2.41.23-2.42.19"/><path class="cls-7" d="M175.76,372.28h-2.71l-2.72-.05"/><path class="cls-7" d="M169.3,374.84c-.93,0-1.87,0-2.81,0s-1.87,0-2.8-.07"/><path class="cls-7" d="M162.8,377.13l-2.91-.08c-1,0-1.93-.08-2.9-.14"/><path class="cls-7" d="M155.7,375.62l-2.7-.21-2.7-.26"/><path class="cls-7" d="M150.3,366.07c-1-.1-1.92-.22-2.88-.34s-1.93-.26-2.88-.4"/><path class="cls-7" d="M145,361.59c-.93-.16-1.85-.34-2.76-.53s-1.84-.37-2.75-.57"/><path class="cls-7" d="M139.17,357.61c-.83-.14-1.66-.28-2.48-.44s-1.65-.31-2.47-.48"/><path class="cls-7" d="M133,356.62q-1.08-.4-2.16-.84l-2.16-.87"/><path class="cls-7" d="M126.5,358.71l-2.41-1c-.8-.34-1.6-.7-2.39-1.06"/><path class="cls-7" d="M119.75,359.42l-2.37-1.12c-.78-.37-1.56-.76-2.34-1.15"/><path class="cls-7" d="M116.68,349.73c-.87-.43-1.73-.88-2.59-1.33s-1.71-.91-2.55-1.38"/><path class="cls-7" d="M108.81,355.15c-1-.53-1.91-1.07-2.86-1.62s-1.9-1.11-2.83-1.69"/><path class="cls-7" d="M98.31,359.87c-.85-.52-1.7-1.06-2.54-1.6s-1.68-1.09-2.51-1.65"/><path class="cls-7" d="M94.52,352.3c-.62-.42-1.22-.84-1.83-1.27l-1.81-1.3"/><path class="cls-7" d="M94.15,341.88c-.79-.57-1.56-1.14-2.34-1.73s-1.54-1.17-2.3-1.77"/><path class="cls-7" d="M89.14,337.62c-.63-.5-1.26-1-1.88-1.53l-1.86-1.55"/><path class="cls-7" d="M84.53,333.82l-1.9-1.65-1.87-1.69"/><path class="cls-7" d="M74.76,336.54c-.71-.65-1.42-1.31-2.12-2s-1.4-1.34-2.09-2"/><path class="cls-7" d="M72.27,329.65c-.59-.59-1.18-1.19-1.76-1.79s-1.17-1.22-1.74-1.83"/><path class="cls-7" d="M74.79,317.66,73.29,316l-1.48-1.67"/><path class="cls-7" d="M65.38,319.22c-.57-.66-1.14-1.32-1.7-2s-1.12-1.33-1.67-2"/><path class="cls-7" d="M60.05,316c-.61-.75-1.21-1.51-1.81-2.27s-1.18-1.53-1.77-2.31"/><path class="cls-7" d="M56.15,311.42c-.56-.75-1.11-1.51-1.65-2.27s-1.09-1.52-1.62-2.29"/><path class="cls-7" d="M47.05,310.07c-.53-.77-1-1.55-1.56-2.33s-1-1.57-1.53-2.36"/><path class="cls-7" d="M55,296.91c-.43-.68-.85-1.37-1.27-2.06l-1.23-2.09"/><path class="cls-7" d="M45.51,296.11c-.46-.78-.9-1.57-1.34-2.36s-.87-1.58-1.3-2.38"/><path class="cls-8" d="M35.61,295.22c-.51-.94-1-1.89-1.48-2.84s-1-1.9-1.41-2.86"/><path class="cls-8" d="M37.69,286c-.37-.78-.73-1.58-1.09-2.37s-.71-1.59-1.06-2.39"/><path class="cls-8" d="M20.22,287.48c-.38-.89-.75-1.79-1.12-2.68s-.72-1.8-1.07-2.71"/><path class="cls-8" d="M26.53,277.58c-.33-.87-.65-1.75-1-2.63s-.62-1.77-.92-2.65"/><path class="cls-8" d="M22,272.54c-.3-.92-.6-1.84-.89-2.76s-.58-1.85-.85-2.78"/><path class="cls-8" d="M7.39,270.24c-.27-.93-.53-1.86-.78-2.8s-.5-1.87-.73-2.81"/><path class="cls-8" d="M38.07,254.41c-.19-.79-.37-1.57-.55-2.36s-.35-1.58-.51-2.37"/><path class="cls-8" d="M6.66,255.66c-.19-.92-.37-1.84-.55-2.76s-.34-1.84-.49-2.76"/><path class="cls-8" d="M12.3,247.09c-.13-.8-.26-1.6-.37-2.4s-.23-1.59-.34-2.4"/><path class="cls-8" d="M5.59,242.75c-.15-1.15-.3-2.31-.43-3.46s-.25-2.31-.35-3.47"/><path class="cls-8" d="M12.63,234.47c-.08-1-.16-2.06-.22-3.09s-.13-2.06-.17-3.1"/><path class="cls-8" d="M13.31,227.66c0-.87-.06-1.74-.07-2.61s0-1.74,0-2.62"/><path class="cls-8" d="M8.19,221.45q0-1.45,0-2.91c0-1,0-1.93.07-2.9"/><path class="cls-8" d="M22,214.37c0-.81.07-1.62.12-2.42s.1-1.61.16-2.42"/><path class="cls-8" d="M21.05,208.67q.11-1.35.24-2.7c.08-.9.17-1.8.27-2.69"/><path class="cls-8" d="M13.83,202c.11-1,.24-2,.37-3.08s.29-2,.44-3.07"/><path class="cls-8" d="M13.5,195.32c.15-.95.31-1.91.48-2.86s.35-1.91.54-2.86"/><path class="cls-8" d="M.5,186.75q.36-1.81.75-3.6c.26-1.2.54-2.4.83-3.59"/><path class="cls-8" d="M2.08,178.38c.21-.81.43-1.62.65-2.43l.69-2.42"/><path class="cls-8" d="M23.78,176.79c.2-.68.41-1.35.63-2s.43-1.35.65-2"/><path class="cls-8" d="M14.86,168.3q.48-1.47,1-2.94t1-2.91"/><path class="cls-8" d="M32,167.48c.32-.84.65-1.68,1-2.52s.68-1.68,1-2.51"/><path class="cls-8" d="M10.81,151.61q.53-1.25,1.08-2.49c.37-.82.74-1.65,1.13-2.47"/><path class="cls-8" d="M28.62,152l1.14-2.35c.39-.79.78-1.56,1.18-2.34"/><path class="cls-8" d="M26.75,144.65c.48-.94,1-1.89,1.48-2.82s1-1.87,1.55-2.8"/><path class="cls-8" d="M25.1,135.38c.51-.9,1-1.79,1.57-2.68s1.07-1.76,1.62-2.64"/><path class="cls-8" d="M39,136.15c.49-.77,1-1.52,1.48-2.28L42,131.62"/><path class="cls-8" d="M43.22,131.62c.55-.79,1.1-1.59,1.67-2.37s1.13-1.57,1.71-2.35"/><path class="cls-8" d="M44.16,124l1.65-2.15c.56-.71,1.12-1.42,1.69-2.12"/><path class="cls-8" d="M40.62,112.59c.61-.75,1.23-1.5,1.85-2.24s1.26-1.47,1.9-2.2"/><path class="cls-8" d="M43.78,105.91c.6-.68,1.21-1.35,1.82-2s1.23-1.32,1.85-2"/><path class="cls-8" d="M43.78,97.26c.85-.89,1.7-1.77,2.56-2.64S48.08,92.89,49,92"/><path class="cls-8" d="M61.25,104.4l2-1.84c.67-.6,1.35-1.21,2-1.8"/><path class="cls-8" d="M67.22,101.22c.68-.6,1.37-1.18,2.06-1.76s1.39-1.16,2.09-1.73"/><path class="cls-8" d="M73.73,98.82l2-1.56c.67-.51,1.33-1,2-1.52"/><path class="cls-8" d="M67.22,79.88q1.16-.87,2.34-1.71c.79-.57,1.58-1.13,2.38-1.68"/><path class="cls-8" d="M81.61,89.65c.91-.62,1.82-1.24,2.73-1.84s1.84-1.2,2.77-1.78"/><path class="cls-8" d="M86.9,84.81c.85-.53,1.71-1,2.57-1.56l2.59-1.51"/><path class="cls-8" d="M94.86,86c.84-.48,1.69-.94,2.54-1.4L100,83.27"/><path class="cls-8" d="M95.45,73.14l2.69-1.34,2.71-1.28"/><path class="cls-8" d="M102.55,72.25c.91-.42,1.82-.83,2.74-1.23l2.76-1.17"/><path class="cls-8" d="M108.05,67.41q1.4-.57,2.79-1.11t2.82-1"/><path class="cls-8" d="M118.86,77.77c.82-.29,1.65-.58,2.47-.85l2.49-.82"/><path class="cls-8" d="M120.85,64.06c1-.32,2-.62,3-.91s2-.58,3-.85"/><path class="cls-8" d="M127.34,63.56c1-.28,2.06-.54,3.09-.8s2.07-.51,3.11-.74"/><path class="cls-8" d="M134.42,61.8q1.43-.31,2.85-.6c.94-.19,1.9-.38,2.85-.55"/><path class="cls-8" d="M142.05,65.32l2.39-.4,2.4-.36"/><path class="cls-8" d="M147.78,61.94l2.88-.39,2.89-.32"/><path class="cls-8" d="M154.37,64.94c1.09-.12,2.19-.22,3.28-.31s2.19-.17,3.28-.23"/><path class="cls-8" d="M160.93,68.23c1,0,1.94-.1,2.91-.13l2.9-.08"/></g></g></svg>